{"glyphs":{"0":{"ha":661,"x_min":0,"x_max":0,"o":"m -67 336 b 25 88 -67 247 -39 151 l 136 -24 b 318 -94 179 -67 239 -94 b 735 513 588 -94 735 292 b 657 744 735 603 713 688 l 546 856 b 360 922 504 897 443 922 b 131 822 264 922 189 882 b -67 336 21 714 -67 494 z "},"1":{"ha":447,"x_min":0,"x_max":0,"o":"m 25 531 b -53 201 -12 432 -53 304 b -3 54 -53 154 -43 93 l 108 -57 b 215 -97 132 -82 167 -97 b 276 -90 228 -97 253 -97 b 322 -64 288 -86 307 -79 b 346 -7 336 -51 346 -33 b 339 24 346 4 343 14 b 556 644 339 174 485 494 b 563 679 560 654 563 665 b 529 747 563 711 546 733 l 418 858 b 281 904 383 886 325 904 b 182 865 240 904 213 894 b 147 838 171 856 158 847 b 111 803 138 828 125 815 b -11 653 67 758 14 699 b -24 606 -14 644 -24 628 b 25 531 -24 564 4 542 z "},"2":{"ha":721,"x_min":0,"x_max":0,"o":"m 654 824 b 368 906 583 894 463 906 b 96 738 250 906 147 844 b 69 640 83 714 69 676 b 110 521 69 596 76 554 l 168 463 b -56 178 50 403 -56 325 b -14 64 -56 128 -40 90 l 97 -47 b 222 -96 138 -83 171 -90 b 293 -97 244 -97 271 -97 b 471 -92 351 -97 414 -97 b 733 139 625 -81 733 -31 b 725 196 733 151 731 175 b 708 232 721 206 717 219 b 683 257 704 238 697 249 l 661 281 b 828 544 756 343 828 424 b 765 713 828 618 804 674 z "},"3":{"ha":692,"x_min":0,"x_max":0,"o":"m 154 464 b 147 432 150 456 147 444 b 151 403 147 421 149 411 b 117 404 138 404 125 404 b -56 239 24 404 -56 333 b 3 78 -56 167 -35 114 l 114 -33 b 300 -97 157 -78 224 -97 b 617 185 475 -97 617 -1 b 585 288 617 222 603 257 b 772 558 688 343 772 436 b 710 726 772 635 747 689 l 599 838 b 336 919 532 906 422 919 b 65 758 218 919 119 863 b 38 656 53 732 38 694 b 82 536 38 601 54 564 z "},"4":{"ha":674,"x_min":0,"x_max":0,"o":"m 310 871 b 172 917 278 900 214 917 b 60 860 146 917 89 911 b -58 496 11 774 -58 610 b -7 350 -58 428 -37 382 l 104 239 b 186 193 128 217 156 203 b 235 54 186 147 199 90 l 346 -57 b 454 -97 371 -82 406 -97 b 515 -90 465 -97 492 -97 b 585 -7 554 -75 585 -53 b 578 24 585 4 581 14 b 793 644 578 174 724 494 b 801 679 797 654 801 665 b 768 747 801 711 783 733 l 657 858 b 519 904 622 886 564 904 b 382 799 435 904 414 864 z "},"5":{"ha":760,"x_min":0,"x_max":0,"o":"m 324 929 b 92 676 194 929 129 779 b 67 550 79 640 67 596 b 90 456 67 518 75 485 b 79 450 86 454 83 451 b -56 240 -7 411 -56 338 b 6 99 -56 188 -31 135 l 117 -12 b 374 -97 189 -85 300 -97 b 772 286 597 -97 772 58 b 694 478 772 367 744 433 b 897 707 803 503 897 592 b 868 790 897 738 889 767 l 757 901 b 704 922 744 913 728 922 b 664 911 696 922 681 919 b 636 896 656 907 646 901 b 626 890 633 894 629 892 l 600 876 b 515 861 575 865 546 861 b 433 876 485 861 457 865 l 413 889 b 396 900 408 893 401 897 b 324 929 376 914 349 929 z "},"6":{"ha":635,"x_min":0,"x_max":0,"o":"m 586 867 b 464 911 560 893 521 911 b -56 342 181 911 -56 611 b 35 86 -56 250 -29 150 l 146 -25 b 333 -97 190 -69 251 -97 b 654 231 521 -97 654 46 b 582 424 654 314 628 379 l 514 493 b 679 518 568 511 624 515 l 690 518 b 753 576 717 519 753 547 b 697 756 753 632 744 708 z "},"7":{"ha":738,"x_min":0,"x_max":0,"o":"m 161 921 b 99 936 143 929 119 936 b 18 868 56 936 32 906 b 8 806 11 844 8 821 b 58 674 8 749 28 704 l 169 563 b 183 550 175 558 179 554 b -8 154 106 456 -8 288 b 29 50 -8 113 4 75 l 140 -61 b 238 -97 164 -83 196 -97 b 361 -56 268 -97 325 -90 b 393 29 379 -36 393 -10 b 392 54 393 36 392 47 l 407 97 b 588 360 444 179 511 269 b 811 604 663 450 746 536 l 817 611 l 832 618 l 832 656 b 797 742 832 693 818 722 l 686 853 b 514 901 642 897 574 901 b 474 900 500 901 488 901 l 392 897 b 351 897 379 897 365 897 b 196 908 296 897 243 899 l 182 913 l 164 921 b 161 921 163 921 161 921 z "},"8":{"ha":693,"x_min":0,"x_max":0,"o":"m 594 856 b 392 929 543 906 468 929 b 93 665 239 929 93 828 b 115 556 93 638 99 594 b -50 307 22 504 -50 418 b 25 88 -50 214 -25 138 l 136 -24 b 347 -97 183 -71 253 -97 b 676 199 524 -97 676 13 b 638 346 676 240 667 299 b 768 579 714 401 768 482 b 706 744 768 651 743 706 z "},"9":{"ha":692,"x_min":0,"x_max":0,"o":"m 183 321 b 18 296 129 303 74 299 l 7 296 b -56 238 -19 294 -56 267 b 0 58 -56 182 -47 106 l 111 -53 b 233 -97 138 -79 176 -97 b 753 472 517 -97 753 203 b 661 728 753 564 726 664 l 550 839 b 364 911 507 883 446 911 b 43 583 176 911 43 768 b 115 390 43 500 69 435 z "},"\u0000":{"ha":0,"x_min":0,"x_max":0,"o":""},"\r":{"ha":347,"x_min":0,"x_max":0,"o":""}," ":{"ha":361,"x_min":0,"x_max":0,"o":""},"a":{"ha":843,"x_min":0,"x_max":0,"o":"m 747 765 b 594 817 710 796 642 817 b 492 778 554 817 518 808 b 331 819 439 813 374 819 b -86 317 78 819 -86 546 b -15 113 -86 251 -69 167 l 96 1 b 235 -51 128 -31 172 -51 b 428 15 311 -51 375 -25 l 494 -50 b 654 -107 531 -86 583 -107 b 1042 304 881 -107 996 111 l 1044 332 b 1017 403 1044 356 1036 383 l 906 514 b 878 532 899 521 889 528 b 886 549 881 538 883 543 b 892 582 889 558 892 569 b 858 654 892 615 875 639 z "},"l":{"ha":417,"x_min":0,"x_max":0,"o":"m 411 1053 b 256 1104 374 1083 301 1104 b 133 1038 225 1104 161 1099 b 68 868 108 983 89 925 b -60 499 22 747 -21 624 b -103 265 -82 429 -103 346 b -42 88 -103 189 -82 128 l 69 -24 b 244 -85 110 -64 168 -85 b 617 304 468 -85 572 110 l 619 331 b 592 403 619 354 613 383 l 481 514 b 435 538 469 526 454 535 b 501 721 456 599 478 660 b 550 836 517 760 535 797 b 557 868 553 844 557 856 b 522 942 557 901 539 926 z "},"i":{"ha":415,"x_min":0,"x_max":0,"o":"m 392 1018 b 285 1063 364 1046 326 1063 b 132 910 200 1063 132 994 b 164 817 132 875 144 842 b 50 754 131 815 79 807 b 8 660 33 725 21 690 b -103 240 -40 546 -103 376 b -43 63 -103 167 -83 104 l 69 -49 b 232 -106 106 -85 158 -106 b 617 304 457 -106 572 111 l 619 331 b 592 403 619 354 611 383 l 481 514 b 456 532 474 521 465 528 b 463 550 457 538 460 544 b 469 582 465 558 469 569 b 438 651 469 614 453 636 b 547 799 503 669 547 732 b 503 907 547 840 531 879 z "},"m":{"ha":1251,"x_min":0,"x_max":0,"o":"m 1068 719 b 893 782 1025 763 960 782 b 711 721 824 782 763 757 l 665 767 b 515 818 632 800 583 818 b 335 757 447 818 386 792 b 176 815 296 796 229 815 b 53 753 146 815 83 808 b -103 238 -18 621 -103 400 b -40 53 -103 179 -90 101 l 71 -58 b 197 -106 99 -86 140 -106 b 264 -97 210 -106 238 -106 b 338 -11 306 -87 338 -54 b 326 31 338 7 333 17 l 328 39 l 326 60 b 333 149 326 89 329 118 b 358 113 340 135 349 122 l 469 1 b 603 -43 501 -32 551 -43 b 756 35 651 -43 719 -28 b 769 81 763 46 769 67 b 783 65 774 75 778 69 l 894 -46 b 1067 -106 935 -86 993 -106 b 1451 304 1290 -106 1407 111 l 1454 331 b 1426 403 1454 354 1446 383 l 1315 514 b 1256 539 1301 528 1282 538 l 1221 540 b 1179 608 1213 568 1197 590 z "},"b":{"ha":714,"x_min":0,"x_max":0,"o":"m 617 767 b 540 815 596 788 571 804 l 546 831 b 553 863 550 839 553 850 b 517 935 553 896 535 919 l 406 1046 b 253 1097 372 1076 296 1097 b 132 1033 222 1097 161 1092 b 74 892 110 988 92 938 b -86 289 11 735 -86 472 b -28 110 -86 236 -76 158 l 83 -3 b 201 -46 110 -28 147 -46 b 254 -42 217 -46 236 -46 l 276 -36 b 404 -67 318 -60 367 -67 b 797 304 624 -67 751 106 b 811 419 806 342 811 381 b 728 656 811 500 789 594 z "},"c":{"ha":565,"x_min":0,"x_max":0,"o":"m 518 746 b 324 819 465 799 381 819 b -54 499 144 804 0 664 b -92 300 -75 438 -92 369 b -14 92 -92 210 -62 140 l 97 -19 b 329 -104 154 -75 236 -104 b 721 169 508 -104 643 18 b 771 301 740 207 761 254 l 774 331 b 744 404 774 354 765 383 l 674 475 b 678 508 676 486 678 497 b 629 635 675 557 665 599 z m 443 378 b 431 363 439 372 435 368 b 349 306 406 333 379 314 b 401 418 358 343 378 385 b 443 378 413 403 426 389 z "},"d":{"ha":839,"x_min":0,"x_max":0,"o":"m 833 1046 b 679 1097 797 1076 725 1097 b 558 1032 649 1097 586 1092 b 517 925 542 999 531 961 b 467 793 500 881 483 838 b 331 819 421 814 369 819 b -86 317 79 819 -86 544 b -15 113 -86 251 -69 167 l 96 1 b 235 -51 128 -31 174 -51 b 447 32 321 -51 390 -18 l 496 -18 b 674 -79 536 -57 594 -79 b 1039 304 892 -79 994 117 l 1042 332 b 1014 403 1042 357 1033 383 l 903 514 b 860 538 892 525 878 533 b 919 701 878 592 899 647 b 972 831 936 744 956 788 b 979 863 975 839 979 849 b 944 935 979 896 961 919 z "},"e":{"ha":568,"x_min":0,"x_max":0,"o":"m 476 757 b 311 818 438 797 381 818 b -93 301 74 818 -93 508 b -14 96 -93 214 -62 144 l 97 -15 b 332 -104 156 -74 240 -104 b 724 169 513 -104 646 17 b 775 301 743 207 765 254 l 778 331 b 749 403 778 356 769 383 l 647 506 b 588 646 643 564 622 613 z "},"f":{"ha":453,"x_min":0,"x_max":0,"o":"m 372 921 b 218 972 335 951 265 972 b 97 908 188 972 126 965 b 56 808 82 876 69 842 b -19 614 29 743 4 679 b -49 603 -29 611 -39 607 b -101 517 -75 589 -101 561 b -71 454 -101 486 -89 467 b -119 165 -96 364 -119 258 b -112 82 -119 138 -117 111 b -106 50 -110 71 -108 61 b -93 13 -103 39 -99 26 b -54 -42 -83 -8 -69 -26 l 57 -153 b 211 -218 99 -194 156 -218 b 549 200 422 -218 549 10 b 513 353 549 246 542 304 b 544 424 531 368 544 390 b 503 493 544 457 525 481 l 449 547 b 511 706 468 600 490 653 b 518 738 515 714 518 725 b 483 810 518 771 500 794 z "},"g":{"ha":722,"x_min":0,"x_max":0,"o":"m 481 783 b 328 819 431 813 369 819 b -89 318 76 819 -89 546 b -17 113 -89 251 -71 167 l 29 67 b -106 -192 -56 -3 -106 -76 b -49 -333 -106 -251 -83 -299 l 63 -444 b 236 -514 108 -490 174 -514 b 643 -131 461 -514 576 -319 b 683 -1 658 -87 669 -43 b 790 318 718 106 754 213 b 874 553 817 397 842 476 b 881 585 876 560 881 571 b 846 657 881 618 863 643 l 735 768 b 681 799 718 783 697 793 b 581 819 646 813 606 819 b 481 783 556 819 511 815 z "},"h":{"ha":836,"x_min":0,"x_max":0,"o":"m 653 719 b 524 779 619 753 574 772 b 544 831 531 796 538 814 b 551 863 549 839 551 850 b 515 935 551 896 533 919 l 404 1046 b 251 1097 369 1078 296 1097 b 131 1032 224 1097 158 1092 b 72 892 108 986 90 939 b -86 290 10 735 -86 474 b -28 110 -86 236 -76 158 l 83 -1 b 201 -46 110 -28 147 -46 b 342 50 264 -46 342 -25 b 335 76 342 65 336 86 b 336 110 335 88 335 99 b 368 65 344 93 356 78 l 479 -46 b 651 -106 519 -86 578 -106 b 1036 304 875 -106 992 111 l 1039 331 b 1011 403 1039 354 1031 383 l 900 514 b 840 539 886 528 867 538 l 806 540 b 764 608 797 567 782 590 z "},"j":{"ha":446,"x_min":0,"x_max":0,"o":"m 4 232 b -7 196 0 221 -3 208 b -14 167 -8 186 -11 176 b -385 -192 -200 122 -385 24 b -328 -333 -385 -251 -362 -299 l -217 -444 b -43 -514 -171 -490 -106 -514 b 407 1 236 -514 343 -222 b 593 551 458 188 519 374 b 600 583 596 560 600 571 b 576 643 600 608 589 629 b 647 772 619 671 647 719 b 603 879 647 814 631 851 l 492 990 b 385 1035 464 1018 426 1035 b 232 883 301 1035 232 967 b 249 815 232 860 238 836 b -43 521 90 789 18 651 b -76 446 -56 494 -68 468 b -94 375 -85 425 -94 399 b -64 300 -94 342 -82 317 z "},"k":{"ha":725,"x_min":0,"x_max":0,"o":"m 674 772 b 546 831 638 808 583 826 b 553 863 550 839 553 850 b 518 935 553 896 535 919 l 407 1046 b 253 1097 369 1076 300 1097 b 132 1032 225 1097 160 1092 b -85 290 50 856 -85 499 b -26 110 -85 239 -75 158 l 85 -1 b 203 -46 111 -28 149 -46 b 333 10 253 -46 306 -36 l 397 -54 b 542 -107 431 -87 478 -107 b 925 304 763 -107 882 115 l 928 332 b 900 403 928 357 919 383 l 790 513 b 821 575 808 531 821 546 b 785 661 821 611 806 640 z "},"n":{"ha":831,"x_min":0,"x_max":0,"o":"m 647 719 b 474 782 604 763 540 782 b 339 750 425 782 379 769 l 333 756 b 174 815 293 796 229 815 b 51 753 143 815 82 808 b -104 236 -19 622 -104 397 b -43 53 -104 178 -92 101 l 68 -58 b 194 -106 96 -86 138 -106 b 261 -99 207 -106 235 -106 b 335 -12 301 -83 335 -60 b 324 32 335 7 331 17 l 325 39 l 324 63 b 326 118 324 79 325 99 b 363 65 336 97 349 81 l 474 -46 b 646 -106 514 -86 572 -106 b 1031 304 871 -106 986 111 l 1033 331 b 1006 403 1033 354 1025 383 l 894 514 b 835 539 881 528 861 538 l 800 540 b 758 608 790 568 776 590 z "},"o":{"ha":622,"x_min":0,"x_max":0,"o":"m 518 744 b 317 819 472 792 407 819 b -101 317 58 819 -101 553 b -21 101 -101 224 -71 151 l 90 -10 b 333 -99 150 -69 236 -99 b 717 388 583 -99 717 165 b 629 633 717 483 690 574 z "},"p":{"ha":714,"x_min":0,"x_max":0,"o":"m 319 771 b 268 799 303 783 285 793 b 169 819 233 813 194 819 b 49 754 140 819 76 814 b -10 614 26 710 10 661 b -160 -21 -76 439 -160 179 b -94 -236 -160 -93 -149 -182 l 17 -347 b 132 -393 44 -375 82 -393 b 199 -385 144 -393 172 -393 b 272 -299 240 -375 272 -342 b 263 -262 272 -282 267 -276 l 265 -251 b 282 -44 265 -183 272 -114 b 417 -81 321 -69 368 -81 b 472 -76 435 -81 453 -78 b 818 407 696 -46 818 199 b 736 643 818 486 797 582 l 625 754 b 464 815 589 790 536 815 b 319 771 408 815 360 799 z "},"q":{"ha":739,"x_min":0,"x_max":0,"o":"m 490 781 b 333 819 439 813 376 819 b -82 317 82 819 -82 544 b -11 113 -82 251 -65 167 l 100 1 b 239 -51 132 -31 178 -51 b 264 -50 247 -51 256 -51 b 329 -236 267 -114 282 -189 l 440 -347 b 556 -393 468 -375 506 -393 b 622 -385 568 -393 596 -393 b 696 -299 664 -375 696 -342 b 689 -256 696 -282 693 -271 b 885 553 689 6 783 306 b 892 585 888 560 892 571 b 857 657 892 618 874 643 l 746 768 b 593 819 708 799 640 819 b 490 781 550 819 522 813 z "},"r":{"ha":640,"x_min":0,"x_max":0,"o":"m 121 229 b 183 61 122 161 142 101 l 294 -50 b 453 -107 329 -86 382 -107 b 840 304 678 -107 796 111 l 843 332 b 815 403 843 357 835 383 l 704 514 b 678 532 697 521 688 528 b 692 582 685 547 692 565 b 657 653 692 615 674 639 l 546 764 b 394 817 510 797 442 817 b 360 813 385 817 372 815 b 343 833 354 819 349 828 l 232 944 b 142 979 211 965 182 979 b -11 828 58 979 -11 911 b 39 715 -11 785 7 744 b -93 575 10 651 -21 596 b -151 493 -133 561 -151 538 b -100 368 -151 465 -137 406 l 11 257 b 89 225 31 238 56 225 b 121 229 100 225 111 226 z "},"s":{"ha":542,"x_min":0,"x_max":0,"o":"m 29 357 b 24 354 26 357 25 356 b -92 192 -40 324 -79 260 b -94 149 -93 178 -94 163 b -46 17 -94 89 -75 46 l 65 -94 b 260 -158 117 -144 197 -158 b 599 158 439 -158 599 -26 b 532 314 599 228 569 276 b 708 588 626 332 708 492 b 663 708 708 642 689 681 l 551 819 b 364 882 500 869 419 882 b -31 689 204 882 54 831 b -74 542 -58 643 -74 594 b -14 400 -74 481 -49 435 z "},"t":{"ha":417,"x_min":0,"x_max":0,"o":"m 410 1046 b 256 1097 372 1078 303 1097 b 136 1031 226 1097 163 1092 b 104 951 124 1006 114 978 b 57 829 89 911 72 869 b 11 826 42 829 26 828 b -86 726 -43 815 -86 788 b -64 672 -86 704 -78 686 l -14 624 b -97 268 -51 518 -97 378 b -36 93 -97 193 -76 133 l 75 -18 b 249 -79 115 -57 174 -79 b 617 304 467 -79 572 115 l 619 332 b 592 403 619 357 611 383 l 481 514 b 439 536 471 525 457 532 l 472 539 b 560 632 524 547 560 578 b 539 688 560 657 551 675 l 506 721 l 550 833 b 557 863 556 850 557 860 b 521 935 557 896 538 919 z "},"u":{"ha":831,"x_min":0,"x_max":0,"o":"m 729 733 b 576 785 693 764 622 785 b 435 679 489 785 467 749 b 426 661 432 674 429 667 l 322 765 b 169 817 286 796 215 817 b 49 754 138 817 78 810 b 13 674 35 728 24 700 b -104 239 -36 556 -104 379 b -43 63 -104 165 -85 104 l 68 -49 b 229 -106 104 -85 157 -106 b 475 8 333 -106 415 -58 b 674 -81 518 -53 590 -81 b 1031 303 883 -81 989 124 l 1033 329 b 1006 403 1033 351 1026 382 l 894 514 b 872 529 888 519 881 525 b 875 550 874 535 875 543 b 840 622 875 583 857 607 z "},"v":{"ha":678,"x_min":0,"x_max":0,"o":"m 307 763 b 154 814 269 793 201 814 b 33 753 117 814 65 807 b 15 711 26 739 19 724 b 7 689 13 704 10 696 l 3 675 b -83 276 -40 560 -83 407 b -11 57 -83 193 -65 111 l 100 -54 b 268 -115 138 -92 192 -115 b 828 536 599 -115 754 271 b 832 568 829 543 832 554 b 803 639 832 600 819 622 l 692 750 b 560 794 657 785 607 794 b 476 750 538 794 501 793 b 465 722 472 740 468 731 b 450 676 458 708 454 692 l 442 649 b 436 631 440 643 439 638 b 418 651 431 639 424 646 z "},"w":{"ha":1067,"x_min":0,"x_max":0,"o":"m 676 769 b 560 817 640 804 582 817 b 436 713 488 817 458 772 b 429 693 433 707 431 700 l 424 678 b 415 654 421 669 418 661 l 304 765 b 151 817 267 796 199 817 b 14 714 71 817 42 782 b 6 689 11 706 8 697 l 1 679 b -83 285 -42 565 -83 414 b -10 65 -83 204 -65 119 l 101 -47 b 267 -107 138 -83 192 -107 b 492 -17 358 -107 433 -71 l 521 -46 b 689 -107 561 -86 618 -107 b 1188 539 1011 -107 1121 289 b 1192 571 1189 546 1192 557 b 1163 642 1192 603 1179 625 l 1051 753 b 921 797 1017 788 968 797 b 817 699 851 797 835 754 b 813 681 815 692 814 686 l 804 653 b 800 642 803 650 801 646 b 788 658 797 649 792 653 z "},"x":{"ha":650,"x_min":0,"x_max":0,"o":"m 347 765 b 194 817 310 796 242 817 b 74 753 163 817 103 810 b 32 494 40 686 32 554 b 47 332 32 442 36 386 b -89 110 -3 261 -47 186 l -107 76 l -83 47 l 28 -64 b 168 -137 54 -94 111 -137 b 222 -108 183 -137 211 -126 b 250 -53 232 -92 240 -71 l 276 -7 b 469 -75 329 -53 394 -75 b 850 304 688 -75 806 113 l 853 332 b 825 403 853 357 844 383 l 722 506 l 722 513 b 681 615 722 531 714 583 l 569 726 b 506 753 554 742 533 753 b 464 742 488 753 471 746 b 432 722 454 738 444 731 b 407 706 425 718 415 711 z "},"y":{"ha":718,"x_min":0,"x_max":0,"o":"m 322 767 b 169 818 286 797 215 818 b 28 715 93 818 54 782 l 13 678 b -93 285 -33 572 -93 413 b -36 121 -93 221 -76 161 l 18 67 b -29 26 1 54 -15 42 b -118 -190 -83 -26 -118 -97 b -60 -333 -118 -250 -96 -299 l 51 -444 b 225 -514 97 -490 163 -514 b 672 3 501 -514 613 -221 b 854 513 719 178 779 349 b 863 547 860 522 863 535 b 828 619 863 581 844 606 l 717 731 b 663 761 700 746 679 756 b 563 782 628 775 588 782 b 443 719 531 782 474 775 b 424 675 436 706 431 690 b 421 668 424 672 422 671 z "},"z":{"ha":779,"x_min":0,"x_max":0,"o":"m 703 775 b 646 788 682 786 660 788 b 608 785 633 788 621 786 b 428 768 547 775 489 768 b 258 794 371 768 313 776 b 181 824 238 800 201 814 b 143 829 171 826 157 829 b 25 681 67 829 25 749 b 76 550 25 624 46 581 l 188 439 b 240 400 203 422 221 410 b 176 364 219 386 199 375 b 126 375 160 368 143 372 b 50 383 101 381 76 383 b -154 150 -61 383 -154 253 b -117 51 -154 106 -139 74 l -6 -60 b 119 -104 28 -93 76 -104 l 135 -104 b 296 -42 199 -100 256 -67 l 315 -26 b 365 -37 329 -26 346 -31 b 431 -68 388 -46 408 -57 b 606 -122 482 -97 546 -122 b 976 286 806 -122 936 118 b 983 333 979 297 983 315 b 956 404 983 350 978 383 l 844 515 b 838 522 843 518 840 521 b 863 589 850 538 863 560 b 814 664 863 628 839 653 z "},"A":{"ha":1367,"x_min":0,"x_max":0,"o":"m 1181 1031 b 818 1149 1094 1117 963 1149 b 343 982 665 1149 464 1107 b 242 758 292 928 242 849 b 296 615 242 697 263 650 l 407 504 b 558 447 444 467 497 447 b 482 346 535 414 510 378 b 447 307 469 331 458 318 b 440 301 444 306 443 303 b 435 306 439 303 436 304 l 324 417 b 283 433 310 425 296 429 b 222 442 260 439 235 442 b -53 135 63 442 -53 286 b 33 -72 -53 51 -19 -21 l 144 -183 b 376 -278 204 -243 289 -278 b 864 111 610 -278 754 -68 b 915 3 871 67 888 29 l 1026 -110 b 1171 -161 1060 -142 1108 -161 b 1400 -7 1272 -161 1364 -103 b 1418 76 1410 18 1418 46 b 1414 111 1418 82 1417 96 b 1393 146 1413 115 1407 132 l 1317 222 l 1318 228 b 1365 425 1333 293 1351 360 b 1392 638 1381 496 1392 565 b 1292 919 1392 765 1354 857 z m 983 611 b 1007 644 992 622 1000 633 z m 321 290 b 333 303 326 296 331 300 z "},"B":{"ha":1106,"x_min":0,"x_max":0,"o":"m 236 454 b 189 300 219 410 201 356 b 142 315 175 310 160 315 b 33 228 90 315 50 274 b 10 121 17 192 10 150 b 75 -44 10 50 36 -4 l 186 -156 b 499 -254 264 -233 394 -254 b 1065 11 715 -254 951 -186 b 1117 196 1096 65 1117 129 b 1067 360 1117 251 1101 311 b 1249 665 1188 418 1249 531 b 1160 883 1249 758 1214 829 l 1049 994 b 600 1149 932 1111 726 1149 b 22 971 426 1149 167 1121 b -82 754 -25 921 -82 844 b -32 625 -82 699 -62 656 l 79 514 b 235 454 119 474 178 454 z "},"C":{"ha":989,"x_min":0,"x_max":0,"o":"m 35 356 b 149 49 35 235 72 125 l 260 -62 b 504 -167 318 -122 400 -160 l 547 -168 b 1007 139 765 -168 943 -76 b 1019 226 1015 165 1019 194 b 963 371 1019 288 997 336 l 906 428 b 1151 714 1054 431 1151 574 b 1061 931 1151 801 1117 875 l 950 1042 b 661 1147 874 1118 767 1147 b 310 994 515 1147 400 1085 b 35 356 161 846 35 569 z m 699 550 b 674 551 690 550 682 551 b 606 542 657 551 632 549 b 643 614 617 564 629 589 b 664 585 649 601 656 592 z m 568 328 b 535 310 561 321 550 314 b 540 357 535 325 538 340 z m 672 263 b 690 246 685 260 690 250 z "},"D":{"ha":1193,"x_min":0,"x_max":0,"o":"m 253 294 b 192 322 238 313 217 322 b 58 125 103 322 58 200 b 126 -43 58 53 86 -3 l 238 -154 b 572 -260 325 -237 456 -260 b 1200 174 869 -260 1089 -94 b 1276 531 1249 286 1276 407 b 1138 900 1276 683 1226 811 l 1026 1011 b 663 1149 939 1099 814 1149 b 85 971 489 1149 229 1121 b -19 754 38 921 -19 844 b 32 625 -19 699 0 656 l 143 514 b 301 454 185 471 243 454 b 253 294 285 408 265 351 z m 849 558 b 738 311 825 465 789 378 b 849 558 771 394 808 476 z "},"E":{"ha":944,"x_min":0,"x_max":0,"o":"m -21 263 b 75 19 -21 160 15 78 l 186 -93 b 476 -203 258 -165 364 -203 b 978 113 694 -203 903 -100 b 994 207 988 142 994 174 b 935 354 994 269 971 318 l 835 454 b 871 451 847 453 860 451 b 1118 739 1026 451 1118 594 b 1031 957 1118 822 1086 901 l 919 1068 b 676 1153 851 1136 768 1153 b 260 914 499 1153 340 1075 b 222 757 238 867 222 813 b 242 658 222 728 226 692 b -21 263 89 582 -21 439 z m 539 328 b 454 271 522 301 490 281 b 508 315 465 288 492 307 b 536 331 517 321 526 326 z m 650 260 b 663 247 661 254 663 247 z "},"F":{"ha":925,"x_min":0,"x_max":0,"o":"m 1314 1144 b 1221 1185 1290 1168 1260 1185 b 1158 1160 1192 1185 1172 1174 b 1133 1122 1144 1147 1138 1132 b 1019 1071 1118 1090 1076 1071 b 921 1082 988 1071 954 1075 b 814 1104 885 1089 849 1097 b 450 1151 697 1128 575 1151 b 54 1014 313 1151 165 1121 b -56 794 3 964 -56 888 b -1 660 -56 738 -35 692 l 110 549 b 175 504 128 529 151 515 b 204 453 181 488 190 468 l 283 374 b 256 200 268 319 256 261 b 306 53 256 138 272 88 l 417 -58 b 554 -106 447 -89 493 -106 b 601 -101 561 -106 582 -106 b 665 -26 639 -86 665 -71 l 663 -4 b 704 188 667 51 683 118 b 769 372 725 253 749 317 b 822 360 786 368 806 365 l 828 357 l 864 321 b 926 286 876 300 901 286 b 982 311 951 286 969 297 b 1022 413 1008 335 1022 378 b 979 518 1022 458 1004 493 l 881 617 l 890 635 b 928 704 903 658 915 681 b 936 742 933 715 936 728 b 918 797 936 765 928 783 l 926 796 b 1101 742 971 782 1036 761 b 1292 707 1165 724 1238 707 b 1486 892 1396 707 1486 785 b 1425 1033 1486 928 1465 992 z "},"G":{"ha":976,"x_min":0,"x_max":0,"o":"m 210 324 b -49 22 57 317 -49 167 b 31 -172 -49 -58 -18 -124 l 142 -283 b 379 -379 204 -346 293 -379 b 693 -233 504 -379 607 -319 b 1054 386 853 -74 994 208 b 1060 424 1058 400 1060 414 b 1039 486 1060 450 1051 471 b 1103 688 1082 544 1103 618 b 1007 921 1103 781 1065 861 l 896 1032 b 583 1147 810 1115 700 1147 b 43 628 296 1147 43 922 b 125 408 43 529 75 458 z m 571 554 b 524 543 556 550 539 546 b 556 622 529 569 540 597 b 554 607 554 618 554 613 b 571 554 554 585 561 568 z m 456 203 b 436 185 456 201 438 186 b 426 192 432 188 429 189 l 407 211 b 456 203 422 207 439 204 z m 317 181 b 328 192 321 185 325 189 z m 439 18 b 418 40 424 18 418 24 z "},"H":{"ha":1194,"x_min":0,"x_max":0,"o":"m -19 732 b 32 600 -19 683 -3 635 l 143 489 b 290 432 181 451 235 432 b 349 438 299 432 322 433 b 274 174 314 363 274 260 b 318 49 274 129 286 82 l 429 -62 b 567 -110 463 -94 511 -110 b 681 -21 622 -110 681 -86 b 678 -8 681 -17 678 -12 l 683 26 b 706 110 690 54 697 82 b 771 -44 713 56 729 -3 l 882 -156 b 1025 -208 914 -187 960 -208 b 1256 32 1153 -208 1256 -93 b 1232 100 1256 57 1250 82 l 1146 186 b 1338 718 1183 363 1264 554 b 1344 751 1342 728 1344 739 b 1311 822 1344 785 1326 808 l 1200 933 b 1049 986 1164 967 1096 986 b 935 925 1019 986 963 981 b 904 860 924 904 914 882 b 853 940 892 892 874 918 l 742 1051 b 483 1138 675 1117 574 1138 b 76 944 326 1138 179 1060 b -19 732 32 893 -19 819 z "},"I":{"ha":744,"x_min":0,"x_max":0,"o":"m 315 442 b 240 178 281 367 240 264 b 285 53 240 122 257 82 l 396 -58 b 533 -106 429 -92 478 -106 b 647 -17 589 -106 647 -82 b 644 -4 647 -12 644 -8 l 653 38 b 775 375 678 153 724 265 b 889 757 824 478 889 625 b 819 944 889 842 861 901 l 708 1056 b 450 1142 643 1119 544 1142 b 71 978 300 1142 171 1078 b 43 949 61 968 53 958 b -53 736 -1 897 -53 824 b -1 604 -53 681 -33 636 l 110 493 b 257 436 147 456 201 436 b 315 442 265 436 289 438 z "},"J":{"ha":1061,"x_min":0,"x_max":0,"o":"m 403 474 b -19 106 197 474 -19 326 b 67 -101 -19 22 14 -49 l 178 -212 b 408 -307 238 -272 321 -307 b 794 -67 576 -307 697 -190 b 964 -135 839 -107 899 -135 b 1144 63 1072 -135 1144 -42 b 1139 104 1144 69 1144 88 b 1118 142 1135 119 1128 132 l 1007 253 b 1003 257 1006 254 1004 256 b 1169 757 1083 411 1169 614 b 1099 953 1169 844 1143 908 l 988 1064 b 747 1146 929 1122 842 1146 b 336 976 594 1146 444 1085 b 308 946 326 967 317 957 b 217 736 264 896 217 821 b 268 604 217 681 236 636 l 379 493 b 403 474 386 486 394 479 z m 575 438 b 571 440 574 439 572 439 l 576 440 z "},"K":{"ha":1149,"x_min":0,"x_max":0,"o":"m 704 1065 b 447 1153 640 1131 542 1153 b 68 989 297 1153 168 1089 b 40 960 58 979 50 969 b -56 747 -4 908 -56 835 b -4 615 -56 692 -36 647 l 107 504 b 254 447 144 467 199 447 b 313 453 263 447 286 449 b 238 189 278 378 238 275 b 282 64 238 133 254 93 l 393 -47 b 531 -94 426 -81 475 -94 b 644 -6 586 -94 644 -71 b 642 7 644 -1 642 3 l 647 36 b 651 58 649 43 650 51 b 688 15 663 43 674 29 l 799 -96 b 963 -167 840 -136 893 -167 b 1194 71 1085 -167 1194 -50 b 1142 156 1194 106 1176 146 l 1076 219 b 1011 269 1072 235 1054 269 b 990 267 1001 269 994 267 b 933 257 971 261 954 257 b 906 315 925 276 915 297 l 899 332 b 1310 726 1118 376 1283 492 l 1311 747 b 1249 890 1311 803 1286 853 l 1138 1001 b 979 1068 1096 1043 1038 1068 b 879 985 928 1068 879 1043 b 883 958 879 972 882 963 b 892 899 889 936 892 918 b 881 825 892 874 889 849 b 815 954 871 881 847 922 z "},"L":{"ha":935,"x_min":0,"x_max":0,"o":"m 481 369 b 283 417 419 403 349 417 b -56 71 86 417 -56 263 b 31 -140 -56 -14 -22 -86 l 142 -251 b 368 -343 200 -308 281 -343 b 660 -200 496 -343 574 -286 l 771 -311 b 801 -339 781 -321 790 -331 b 1075 -439 872 -400 958 -439 b 1442 -101 1283 -439 1442 -318 b 1382 42 1442 -57 1433 25 l 1314 110 b 1251 156 1300 143 1272 156 b 1190 110 1224 156 1197 128 b 1010 26 1168 56 1094 26 b 842 67 951 26 893 40 b 1065 744 942 250 1065 550 b 989 960 1065 835 1039 910 l 878 1071 b 668 1147 829 1119 758 1147 b 197 907 483 1147 306 1057 b 125 710 161 856 125 788 b 179 572 125 654 144 606 l 290 461 b 426 407 324 426 371 407 b 504 418 442 407 474 411 b 481 369 496 400 489 385 z "},"M":{"ha":1547,"x_min":0,"x_max":0,"o":"m 322 458 b 317 443 321 453 318 449 b 242 132 283 358 242 235 b 292 -15 242 69 258 18 l 403 -126 b 540 -175 433 -157 479 -175 b 586 -169 547 -175 567 -175 b 651 -96 624 -162 651 -135 l 649 -74 b 692 125 653 -15 669 56 b 711 101 697 117 703 108 l 822 -10 b 922 -46 847 -37 886 -46 b 1069 31 979 -46 1038 -17 b 1122 -58 1081 -3 1097 -33 l 1233 -169 b 1383 -225 1267 -204 1315 -225 b 1615 17 1513 -225 1615 -110 b 1613 49 1615 21 1615 35 b 1592 83 1611 51 1606 69 l 1506 169 b 1599 475 1526 274 1560 376 b 1658 619 1618 524 1639 571 b 1676 700 1667 640 1676 668 b 1635 807 1676 747 1660 782 l 1524 918 b 1354 978 1476 965 1400 978 b 1114 888 1263 978 1182 939 b 1107 894 1113 890 1110 892 l 996 1006 b 626 1147 901 1100 758 1147 b 49 968 451 1147 194 1118 b -56 753 1 919 -56 843 b -6 622 -56 696 -36 654 l 106 511 b 261 453 146 472 204 453 b 322 458 269 453 296 454 z "},"N":{"ha":1215,"x_min":0,"x_max":0,"o":"m 1193 942 b 1024 1001 1146 990 1068 1001 b 824 940 949 1001 882 976 b 817 949 822 943 819 946 l 706 1060 b 447 1146 640 1124 542 1146 b 68 982 297 1146 168 1082 b 40 953 58 972 50 963 b -56 740 -4 901 -56 828 b -4 608 -56 685 -36 640 l 107 497 b 254 440 144 460 199 440 b 313 446 263 440 286 442 b 238 182 278 371 238 268 b 282 57 238 126 254 86 l 393 -54 b 531 -101 426 -87 475 -101 b 644 -12 586 -101 644 -78 b 642 0 644 -8 642 -4 b 672 131 642 15 668 122 b 728 236 688 163 707 199 b 725 182 726 218 725 200 b 797 -35 725 111 740 22 l 908 -146 b 1054 -200 942 -178 988 -200 b 1285 40 1182 -200 1285 -85 b 1282 72 1285 44 1285 58 b 1261 108 1281 76 1275 94 l 1174 196 b 1226 382 1183 249 1201 313 b 1328 643 1260 479 1301 578 b 1346 725 1338 665 1346 693 b 1304 831 1346 772 1329 807 z "},"O":{"ha":929,"x_min":0,"x_max":0,"o":"m 57 694 b -56 353 -10 596 -56 478 b 65 43 -56 240 -14 122 l 176 -69 b 418 -167 238 -129 318 -167 b 981 331 714 -167 889 78 b 1038 631 1014 424 1038 528 b 933 926 1038 761 1000 860 l 822 1038 b 513 1144 750 1108 644 1144 b 50 756 283 1144 50 1006 b 57 694 50 739 50 717 z m 651 769 b 572 494 643 675 614 579 b 550 561 572 519 568 542 l 522 589 l 521 596 b 651 769 521 668 585 743 z m 524 410 b 432 318 500 372 469 343 b 440 375 433 338 436 357 b 524 410 471 382 499 392 z "},"P":{"ha":1142,"x_min":0,"x_max":0,"o":"m 263 446 b 197 160 232 364 197 253 b 247 13 197 97 214 47 l 358 -99 b 496 -146 389 -129 435 -146 l 514 -146 l 542 -142 b 607 -67 578 -132 607 -107 l 604 -44 b 642 138 608 14 624 76 b 1258 544 915 153 1194 250 b 1268 638 1265 575 1268 607 b 1171 878 1268 742 1231 819 l 1060 989 b 626 1140 949 1101 761 1140 b 49 963 453 1140 194 1113 b -56 746 1 913 -56 836 b -6 617 -56 690 -36 647 l 107 506 b 261 446 146 465 204 446 z "},"Q":{"ha":1017,"x_min":0,"x_max":0,"o":"m 1332 124 b 1269 169 1318 157 1292 169 b 1208 125 1242 169 1217 143 b 1029 42 1178 57 1096 42 b 914 60 990 42 951 47 b 1113 632 1033 218 1113 451 b 1008 928 1113 763 1075 861 l 897 1039 b 588 1146 825 1110 719 1146 b 125 757 358 1146 125 1007 b 132 696 125 742 125 719 b 19 354 65 597 19 479 b 140 44 19 242 61 124 l 251 -67 b 493 -165 311 -128 393 -165 b 639 -143 543 -165 592 -158 b 700 -207 658 -165 678 -187 l 763 -268 b 1093 -425 847 -369 958 -425 b 1460 -86 1303 -425 1460 -304 b 1400 56 1460 -40 1451 39 z m 726 771 b 647 494 719 686 690 583 b 625 563 647 521 643 542 l 597 590 l 596 597 b 726 771 596 669 660 744 z m 597 410 b 547 351 582 388 565 367 b 513 368 536 358 525 364 b 515 376 514 371 514 374 b 597 410 539 382 578 393 z "},"R":{"ha":1129,"x_min":0,"x_max":0,"o":"m 263 460 b 197 174 232 378 197 267 b 247 26 197 111 214 61 l 358 -85 b 496 -132 389 -115 435 -132 l 514 -132 l 542 -128 b 607 -53 578 -118 607 -93 l 604 -31 b 613 36 606 -10 608 13 b 651 -8 625 21 638 6 l 763 -119 b 908 -183 808 -165 846 -183 b 1139 54 1032 -183 1139 -68 b 1133 90 1139 61 1139 75 b 1086 138 1131 101 1118 129 l 1022 201 b 1001 235 1021 208 1014 224 b 1268 651 1167 318 1268 467 b 1171 892 1268 756 1231 833 l 1060 1003 b 626 1154 949 1115 761 1154 b 49 976 451 1154 194 1126 b -56 760 1 926 -56 850 b -6 631 -56 704 -36 661 l 107 519 b 261 460 146 479 204 460 z "},"S":{"ha":1022,"x_min":0,"x_max":0,"o":"m 94 38 l 206 -74 b 540 -196 294 -164 425 -196 b 1050 178 788 -196 1050 -110 b 924 467 1050 290 992 389 b 968 461 939 463 954 461 b 1176 717 1104 461 1176 594 b 1082 947 1176 806 1142 888 l 971 1058 b 794 1147 924 1104 864 1136 b 714 1153 768 1150 740 1153 b 275 808 514 1153 275 1033 b 410 533 275 693 343 600 b 317 554 381 547 347 554 b -4 265 149 554 -4 443 b 94 38 -4 179 35 97 z "},"T":{"ha":942,"x_min":0,"x_max":0,"o":"m 1396 1083 b 1303 1124 1372 1107 1342 1124 b 1240 1099 1279 1124 1257 1117 b 1215 1063 1231 1090 1224 1078 b 1208 1047 1211 1054 1214 1056 b 1101 1010 1192 1026 1146 1010 b 994 1021 1067 1010 1031 1015 b 879 1043 956 1028 917 1036 b 475 1090 746 1068 611 1090 b 54 953 338 1090 171 1065 b -56 733 3 903 -56 826 b -1 599 -56 676 -35 631 l 110 488 b 272 424 151 444 214 424 b 440 514 326 424 440 440 b 435 551 440 528 438 539 l 432 564 b 465 651 432 589 446 618 b 561 729 485 685 519 710 b 360 139 482 571 360 314 b 410 -8 360 76 376 26 l 521 -119 b 658 -167 551 -150 597 -167 b 704 -162 665 -167 685 -167 b 769 -87 742 -147 769 -133 l 767 -65 b 882 332 776 51 836 219 b 1032 643 926 439 979 540 b 1040 681 1038 654 1040 667 l 1039 701 b 1343 646 1136 672 1242 646 b 1568 831 1458 646 1568 704 b 1507 972 1568 867 1547 931 z "},"U":{"ha":1306,"x_min":0,"x_max":0,"o":"m 344 471 b 319 303 329 415 319 357 b 393 97 319 214 346 144 l 504 -14 b 713 -87 551 -62 622 -87 b 910 -14 788 -87 854 -56 l 1008 -112 b 1153 -167 1040 -146 1088 -167 b 1383 75 1282 -167 1383 -51 b 1381 107 1383 79 1383 93 b 1360 142 1379 111 1374 128 l 1274 228 b 1290 293 1279 247 1285 269 b 1336 440 1307 350 1325 408 b 1443 696 1365 528 1408 610 b 1460 772 1451 717 1460 742 b 1421 871 1460 815 1444 847 l 1310 982 b 1183 1032 1275 1017 1225 1032 b 1063 968 1149 1032 1092 1022 b 1029 894 1050 944 1039 918 b 951 711 1001 833 976 772 b 925 638 943 686 935 661 b 904 596 919 626 913 611 b 931 765 919 653 931 710 b 858 964 931 856 903 919 l 747 1075 b 486 1163 683 1139 585 1163 b 40 972 315 1163 158 1104 b -56 758 -4 921 -56 846 b -4 628 -56 703 -36 660 l 107 517 b 257 458 144 479 200 458 b 331 468 265 458 299 461 b 344 471 335 469 339 469 z "},"V":{"ha":1339,"x_min":0,"x_max":0,"o":"m 1664 1129 b 1494 1199 1619 1174 1558 1199 b 1238 1078 1388 1199 1313 1153 b 958 664 1129 969 1036 806 b 901 560 939 629 919 594 b 915 688 910 604 915 647 b 846 882 915 778 889 840 l 735 993 b 447 1085 665 1064 543 1085 b 40 890 286 1085 144 1010 b -56 679 -4 840 -56 767 b -4 549 -56 624 -36 581 l 107 438 b 257 379 144 400 200 379 b 347 393 286 379 318 386 b 329 242 336 342 329 289 b 408 15 329 151 354 69 l 519 -97 b 713 -167 563 -140 626 -167 b 1224 211 946 -167 1104 36 b 1418 528 1293 314 1356 421 b 1735 778 1482 643 1590 778 b 1765 776 1746 778 1756 776 b 1832 829 1796 776 1826 799 b 1838 867 1838 844 1838 860 b 1775 1018 1838 928 1813 981 z m 314 589 b 313 599 313 593 313 596 z "},"W":{"ha":1676,"x_min":0,"x_max":0,"o":"m 339 390 b 303 192 318 326 303 257 b 367 14 303 113 326 54 l 478 -97 b 676 -167 524 -144 594 -167 b 906 -47 765 -167 844 -108 l 964 -106 b 1131 -167 1001 -144 1056 -167 b 1472 47 1300 -167 1389 -87 b 1567 217 1507 101 1536 160 b 1736 528 1622 321 1676 425 b 2053 778 1803 643 1907 778 b 2083 776 2064 778 2074 776 b 2150 829 2114 776 2144 799 b 2156 867 2156 844 2156 860 b 2093 1018 2156 928 2131 981 l 1982 1129 b 1813 1199 1938 1174 1876 1199 b 1576 1094 1715 1199 1646 1161 b 1331 686 1475 992 1396 829 b 1326 697 1329 690 1328 693 b 1299 736 1319 711 1310 725 l 1188 847 b 1101 883 1167 868 1139 883 b 939 769 1028 883 975 826 b 924 744 933 761 929 753 b 854 885 914 804 889 850 l 743 996 b 486 1083 681 1058 585 1083 b 40 890 315 1083 157 1024 b -56 679 -4 840 -56 767 b -4 549 -56 624 -36 581 l 107 438 b 257 379 144 400 200 379 b 331 389 265 379 299 382 b 339 390 333 389 336 390 z "},"Y":{"ha":1242,"x_min":0,"x_max":0,"o":"m 360 456 b 414 268 360 388 368 322 b 164 -33 264 254 164 111 b 243 -228 164 -114 194 -179 l 354 -339 b 592 -435 417 -401 504 -435 b 1251 343 936 -435 1161 50 l 1264 363 b 1360 606 1315 439 1360 508 b 1303 754 1360 650 1343 713 l 1192 865 b 1088 907 1167 890 1132 907 b 938 811 1021 907 969 867 b 925 786 933 803 929 794 b 857 932 918 849 892 896 l 746 1043 b 447 1144 668 1121 543 1144 b 68 981 297 1144 168 1081 b 40 951 58 971 50 961 b -56 739 -4 900 -56 826 b -4 607 -56 683 -36 639 l 107 496 b 254 439 144 458 199 439 b 329 449 264 439 297 442 b 360 456 339 450 350 453 z "},"Z":{"ha":1193,"x_min":0,"x_max":0,"o":"m 1049 197 b 1035 208 1044 201 1040 206 b 1369 694 1164 357 1276 519 b 1518 893 1449 728 1518 803 b 1485 979 1518 932 1506 960 l 1374 1090 b 1261 1131 1343 1121 1296 1131 b 1161 1103 1219 1131 1189 1121 b 782 1146 1036 1126 910 1146 b 361 1010 646 1146 476 1122 b 253 790 310 960 253 882 b 306 656 253 733 274 688 l 417 544 b 579 481 460 501 521 481 b 689 500 614 481 656 488 b 663 474 681 492 672 482 b 606 419 644 456 625 436 b 318 494 521 465 403 494 b -32 249 149 494 31 399 b -56 133 -46 214 -56 175 b 22 -56 -56 56 -25 -8 l 133 -167 b 375 -264 197 -231 289 -264 b 744 -79 529 -264 635 -174 b 964 -192 797 -133 869 -192 b 1168 -47 1057 -192 1132 -131 b 1185 28 1175 -28 1185 -1 b 1160 86 1185 44 1176 69 z m 924 789 b 747 564 869 711 810 635 b 742 608 747 579 744 593 l 739 621 b 772 708 739 646 753 675 b 924 789 799 751 860 779 z "},"X":{"ha":1101,"x_min":0,"x_max":0,"o":"m 840 929 b 838 932 839 931 838 931 l 726 1043 b 449 1149 660 1108 571 1149 b 39 972 294 1149 146 1094 b -50 776 -1 926 -50 858 b -1 653 -50 724 -31 682 l 110 542 b 249 488 144 506 196 488 b 360 508 274 488 336 496 b 408 572 396 524 408 551 l 407 590 b 497 776 407 660 443 733 b 531 796 510 786 521 793 b 532 793 531 796 532 794 b 586 601 558 728 576 653 b 90 261 469 451 292 261 b 40 265 74 261 57 263 l -4 271 l -19 231 b -32 164 -28 210 -32 186 b 26 22 -32 104 -8 57 l 138 -89 b 363 -178 200 -150 296 -178 b 714 -11 503 -178 621 -104 b 842 -235 746 -92 779 -172 l 953 -346 b 1115 -418 996 -389 1049 -418 b 1446 -285 1238 -418 1369 -386 b 1482 -179 1464 -257 1482 -221 b 1478 -147 1482 -172 1481 -158 b 1458 -110 1478 -142 1472 -124 l 1347 1 b 1301 19 1338 11 1322 19 b 1275 17 1293 19 1285 18 b 1254 13 1269 15 1261 14 b 1225 8 1244 11 1235 8 b 1169 22 1206 8 1188 14 b 1013 476 1089 146 1042 335 b 1353 743 1085 601 1194 743 b 1428 736 1379 743 1406 736 b 1499 822 1478 736 1499 779 b 1440 964 1499 879 1475 928 l 1329 1075 b 1172 1140 1288 1117 1231 1140 b 840 929 1031 1140 924 1033 z m 579 785 b 590 774 582 782 586 778 z m 297 693 b 296 701 297 696 296 699 z "},"-":{"ha":593,"x_min":0,"x_max":0,"o":"m 558 186 b 507 211 547 199 531 207 b 263 233 428 225 344 233 b -1 157 169 233 69 224 b -54 44 -28 129 -49 93 b -56 31 -56 40 -56 35 b -33 -29 -56 3 -46 -15 l 78 -140 b 146 -167 97 -160 125 -167 l 169 -165 l 196 -140 l 200 -144 b 331 -122 225 -129 283 -122 b 558 -154 406 -122 481 -136 l 581 -157 b 699 -4 654 -157 699 -69 b 669 75 699 19 693 51 z "},"+":{"ha":778,"x_min":0,"x_max":0,"o":"m 193 250 b 235 149 196 214 208 176 l 346 38 b 446 1 368 15 400 1 b 500 8 456 1 478 1 b 567 88 538 18 567 47 l 563 111 b 606 265 569 161 586 214 b 725 243 646 260 685 251 l 746 240 b 817 269 776 240 800 254 b 864 393 847 303 864 349 b 836 471 864 415 860 449 l 751 556 l 757 564 b 768 603 761 572 768 586 b 735 668 768 635 749 657 l 624 779 b 497 819 593 804 536 819 b 394 769 469 819 424 814 b 315 635 367 725 340 681 b 51 433 189 626 51 583 b 78 365 51 407 61 382 l 189 254 b 193 250 190 253 192 251 z "},"*":{"ha":418,"x_min":0,"x_max":0,"o":"m -10 826 b -12 821 -11 825 -12 824 b -26 768 -19 808 -26 789 b 1 696 -26 736 -15 713 l 113 585 b 196 551 135 563 167 551 b 240 568 217 551 233 563 l 253 579 b 331 542 274 554 306 542 b 407 583 368 542 393 563 b 433 644 422 603 429 625 l 439 671 l 447 671 b 554 794 508 671 554 738 b 524 858 554 825 540 846 l 532 878 b 542 919 536 888 542 903 b 514 992 542 951 531 975 l 403 1103 b 319 1136 381 1125 349 1136 b 263 1110 304 1136 283 1129 b 183 1146 242 1133 208 1146 b 76 1022 113 1146 89 1079 b -49 890 15 1008 -49 958 b -10 826 -49 858 -31 838 z "},"^":{"ha":654,"x_min":0,"x_max":0,"o":"m 389 679 b 429 611 389 650 403 625 l 506 536 b 540 500 514 518 528 507 b 582 492 557 493 574 492 b 750 613 643 492 750 539 b 642 926 750 714 726 840 l 531 1038 b 342 1119 478 1086 417 1119 b 42 839 193 1119 88 963 b 15 729 32 815 15 767 b 57 636 15 694 32 661 l 168 525 b 264 482 194 499 229 482 b 347 567 313 482 347 518 b 389 679 347 596 367 639 z "},"˜":{"ha":692,"x_min":0,"x_max":0,"o":"m 131 1004 b 36 940 85 1004 56 979 b 19 858 24 911 19 881 b 39 789 19 831 29 806 b 72 744 93 689 72 744 l 183 633 b 340 574 226 590 286 574 b 529 647 435 574 490 611 b 568 690 543 661 556 679 b 617 675 589 690 604 683 l 640 658 b 689 642 658 647 675 642 b 799 751 749 642 799 692 b 742 844 799 799 760 831 l 631 956 b 488 1008 588 989 543 1008 b 344 981 438 1008 390 999 b 285 954 326 974 307 963 b 249 943 265 946 254 943 l 239 947 l 229 957 b 215 971 225 961 219 967 b 131 1004 188 992 169 1004 z "},"/":{"ha":739,"x_min":0,"x_max":0,"o":"m 746 990 b 592 1038 706 1021 642 1038 b 464 983 554 1038 500 1031 b 349 814 424 929 386 871 b -26 74 242 654 -26 256 b 8 -22 -26 35 -14 1 l 119 -133 b 211 -167 140 -154 172 -167 b 361 -62 278 -167 353 -137 b 876 756 506 228 679 500 b 894 807 883 767 894 783 b 857 879 894 842 874 865 z "},"\\":{"ha":553,"x_min":0,"x_max":0,"o":"m 304 971 b 242 1029 290 1003 265 1019 b 181 1038 219 1036 197 1038 b -33 910 110 1038 -33 1003 b -26 879 -33 897 -31 888 b 204 68 79 633 164 336 b 201 44 201 60 201 51 b 228 -19 201 17 213 -6 l 339 -131 b 375 -156 350 -143 363 -150 b 446 -167 401 -165 429 -167 b 611 65 578 -167 611 -43 b 429 822 611 282 506 606 b 415 860 424 838 422 846 b 363 914 404 888 383 904 z "},":":{"ha":422,"x_min":0,"x_max":0,"o":"m 354 707 b 264 740 333 726 304 740 b 101 581 178 740 101 668 b 140 481 101 542 115 506 b 33 332 81 458 33 397 b 72 232 33 293 47 258 l 183 121 b 276 85 207 99 239 85 b 439 238 360 85 439 151 b 400 344 439 274 428 315 b 506 486 461 365 506 419 b 465 596 506 524 494 567 z "},";":{"ha":453,"x_min":0,"x_max":0,"o":"m 343 713 b 253 746 322 733 293 746 b 89 586 167 746 89 674 b 147 472 89 540 110 497 b 44 346 97 454 44 401 b 75 282 44 317 58 296 l 99 258 l 99 256 l 92 240 b 81 207 82 222 81 208 b 97 167 81 190 88 178 l 208 56 b 254 36 222 43 240 36 b 367 92 293 36 340 65 b 431 215 400 125 422 168 l 432 239 b 379 347 432 283 413 324 b 494 492 443 368 494 422 b 454 601 494 529 483 572 z "},"<":{"ha":674,"x_min":0,"x_max":0,"o":"m 581 735 b 476 772 558 758 525 772 b 67 457 338 772 67 626 b 165 257 67 385 114 306 l 276 146 b 508 42 336 85 418 42 b 699 208 590 42 699 118 b 678 261 699 228 692 247 l 567 372 b 513 393 551 388 535 393 b 608 415 550 404 589 411 b 671 426 629 418 650 422 b 735 486 681 428 735 476 l 735 496 b 692 624 735 540 725 590 z "},"=":{"ha":888,"x_min":0,"x_max":0,"o":"m 808 668 b 757 694 796 681 781 690 b 453 722 660 713 551 722 b 135 519 314 722 135 693 b 157 456 135 496 143 472 b 117 425 142 447 128 438 b 65 297 86 394 65 353 b 92 229 65 271 75 246 l 203 118 b 268 93 218 103 240 93 b 292 96 274 93 282 93 l 314 117 l 319 111 b 496 139 361 131 439 139 b 739 107 576 139 657 126 l 760 104 b 857 169 804 104 836 133 b 879 257 871 197 879 231 b 856 331 879 279 874 308 b 900 357 874 335 888 346 b 947 479 929 386 947 439 b 919 557 947 503 942 535 z "},">":{"ha":699,"x_min":0,"x_max":0,"o":"m 350 450 b 340 446 347 449 343 447 b 167 410 296 429 215 410 b 115 389 143 410 126 401 b 88 308 94 369 88 335 b 124 192 88 269 99 222 l 235 81 b 299 49 247 67 268 49 b 701 239 457 49 613 103 b 744 374 722 274 744 322 b 667 546 744 444 711 501 l 556 657 b 401 756 508 704 447 738 b 292 783 378 767 331 783 b 139 639 222 783 139 710 b 160 586 139 615 147 599 l 271 475 b 331 451 289 457 315 451 b 350 450 338 451 343 451 z m 460 392 b 497 354 476 378 490 365 z "},"!":{"ha":613,"x_min":0,"x_max":0,"o":"m 668 1022 b 507 1063 626 1047 554 1063 b 383 1007 461 1063 407 1051 b 321 883 360 968 340 925 b 118 300 256 754 118 468 b 157 175 118 256 128 208 b 47 8 92 144 47 81 b 92 -106 47 -36 63 -76 l 203 -217 b 310 -258 229 -243 265 -258 b 497 -82 406 -258 497 -181 b 461 33 497 -43 488 0 b 518 115 486 44 518 68 l 518 126 b 815 799 582 354 692 597 b 826 838 821 807 826 821 b 779 911 826 878 796 901 z "},"?":{"ha":840,"x_min":0,"x_max":0,"o":"m 750 986 b 525 1071 697 1039 622 1071 b 169 933 393 1071 264 1028 b 68 700 110 874 68 794 b 107 622 68 665 88 639 l 207 522 b 217 511 210 518 214 514 b 64 321 144 472 64 411 b 121 183 64 267 82 215 b -40 0 33 168 -40 90 b 6 -114 -40 -44 -24 -85 l 117 -225 b 222 -267 142 -251 179 -267 b 411 -90 318 -267 411 -190 b 365 39 411 -44 400 6 b 413 63 385 42 400 51 b 432 103 425 76 432 92 b 489 193 432 142 450 168 b 564 231 510 207 535 218 b 658 269 594 243 626 256 b 954 624 828 335 954 424 b 861 875 954 725 922 814 z "},"'":{"ha":339,"x_min":0,"x_max":0,"o":"m 35 38 b 24 4 25 19 24 6 b 40 -36 24 -12 31 -25 l 151 -147 b 197 -167 165 -160 183 -167 b 310 -111 236 -167 283 -137 b 374 13 343 -78 365 -35 l 375 36 b 338 131 375 74 361 107 l 226 242 b 133 279 204 265 171 279 b 28 228 101 279 58 260 b -12 143 4 206 -12 175 b 18 79 -12 114 1 93 l 43 54 z "},"\"":{"ha":485,"x_min":0,"x_max":0,"o":"m 26 38 b 15 4 17 19 15 6 b 32 -36 15 -12 22 -25 l 143 -147 b 189 -167 157 -160 175 -167 b 244 -151 214 -167 236 -156 l 278 -131 b 335 -167 289 -154 315 -167 b 447 -111 374 -167 421 -137 b 511 13 481 -78 503 -35 l 514 36 b 475 131 514 74 500 107 l 364 242 b 271 279 342 265 310 279 b 200 257 246 279 221 269 b 125 279 179 272 153 279 b 19 228 93 279 50 260 b -21 143 -4 206 -21 175 b 10 79 -21 114 -8 93 l 35 54 z "},"#":{"ha":1024,"x_min":0,"x_max":0,"o":"m 103 386 b 3 238 33 351 3 318 b 7 213 4 229 4 221 b 31 167 11 193 19 178 l 106 92 b 149 -22 107 57 117 10 l 260 -133 b 349 -167 279 -153 308 -167 b 410 -160 360 -167 386 -167 b 478 -76 450 -144 478 -124 l 475 -54 b 488 -14 479 -40 483 -28 b 496 -22 490 -17 493 -19 l 607 -133 b 696 -167 626 -153 656 -167 b 757 -160 707 -167 733 -167 b 826 -76 796 -144 826 -122 l 824 -54 b 857 51 833 -19 844 17 l 867 49 b 936 40 888 44 911 40 b 1064 196 1014 40 1064 125 b 1018 285 1064 226 1053 264 b 1107 432 1074 304 1107 376 b 1064 519 1107 469 1094 501 b 1119 614 1082 551 1101 583 b 1131 654 1125 622 1131 636 b 1096 722 1131 688 1111 710 l 985 833 b 847 878 953 860 886 878 b 736 824 818 878 767 872 b 703 768 725 804 714 786 l 638 833 b 500 878 607 858 539 878 b 389 824 471 878 419 872 b 297 665 357 771 326 718 b 174 636 263 660 217 651 b 47 475 93 603 47 568 b 103 386 47 438 64 399 z "},"@":{"ha":1046,"x_min":0,"x_max":0,"o":"m 914 803 b 617 913 839 878 735 913 b 72 578 388 913 174 782 b 14 353 38 510 14 433 b 126 53 14 231 54 126 l 238 -58 b 524 -167 307 -126 404 -167 b 857 -69 622 -167 768 -139 l 917 -24 l 879 15 b 1142 383 1058 42 1142 217 b 1025 692 1142 494 1104 613 z "},"$":{"ha":871,"x_min":0,"x_max":0,"o":"m 728 1000 b 663 1017 707 1011 682 1017 b 574 978 624 1017 596 1001 b 556 954 567 969 561 961 b 192 683 393 954 192 871 b 260 513 192 615 222 558 b 238 514 253 514 246 514 b -14 286 103 514 -14 426 b 57 114 -14 213 14 156 l 168 3 b 365 -92 221 -50 296 -81 l 408 -135 b 489 -167 426 -154 453 -167 b 550 -160 500 -167 526 -167 b 619 -79 589 -146 617 -124 l 614 -74 b 618 -72 615 -74 617 -72 b 611 -39 618 -61 615 -50 l 644 -64 b 860 193 763 -22 860 58 b 788 357 860 257 824 315 l 747 400 b 811 386 769 392 792 386 b 981 589 917 386 981 492 b 913 747 981 654 953 708 l 883 778 b 890 810 886 785 890 796 b 839 889 890 853 860 878 z m 771 886 l 771 885 z "},"€":{"ha":938,"x_min":0,"x_max":0,"o":"m 63 378 b 54 372 60 376 57 374 b -4 244 8 338 -4 300 b 0 219 -3 236 -3 228 b 24 174 4 200 13 185 l 135 63 b 182 43 147 50 164 43 l 183 43 l 297 -71 b 558 -167 361 -135 454 -167 b 896 124 735 -167 896 -65 l 896 183 l 785 294 l 740 292 l 756 306 l 885 306 b 1044 472 981 306 1044 378 b 971 649 1044 544 1015 604 l 860 760 b 661 842 808 811 735 842 b 199 610 468 842 300 778 b 82 553 153 600 117 583 b 43 442 46 514 43 490 b 46 415 43 433 44 424 b 63 378 50 401 56 388 z "},"%":{"ha":836,"x_min":0,"x_max":0,"o":"m 763 728 b 660 767 739 750 706 767 b 558 647 588 767 558 715 l 547 631 b 526 608 542 624 535 617 b 518 619 524 613 521 615 l 407 731 b 311 765 385 751 354 765 b 113 506 188 765 113 613 b 183 365 113 456 133 394 b 113 308 158 346 135 328 b 8 132 61 263 8 201 b 64 3 8 90 28 39 l 175 -108 b 275 -151 200 -133 235 -151 b 353 -72 328 -151 349 -118 l 360 -65 b 418 -19 372 -53 392 -37 b 476 21 436 -7 456 7 b 493 0 482 13 488 6 l 604 -111 b 700 -149 626 -133 658 -149 b 807 -101 744 -149 779 -128 b 851 -40 825 -82 840 -60 b 893 119 878 13 893 74 b 853 233 893 160 882 204 l 814 272 l 818 276 b 922 478 874 332 922 401 b 874 617 922 522 910 579 z "},"&":{"ha":911,"x_min":0,"x_max":0,"o":"m 763 1000 b 554 1064 711 1051 629 1064 b 317 960 469 1064 376 1017 b 219 715 254 897 219 813 b 236 568 219 665 226 615 b 194 540 224 560 210 550 b 103 472 164 519 132 497 b 64 436 90 461 76 450 b -19 275 21 393 -19 338 b 82 46 -19 193 19 107 l 193 -65 b 393 -154 246 -119 315 -154 b 700 -47 508 -154 613 -111 b 850 -76 747 -67 799 -76 b 1007 60 906 -76 1007 -3 b 990 104 1007 79 1000 93 l 906 188 b 943 303 925 222 943 265 b 911 389 943 343 931 369 l 800 500 b 926 739 864 560 926 638 b 874 889 926 810 906 857 z "},"(":{"ha":500,"x_min":0,"x_max":0,"o":"m 576 958 b 478 983 544 975 507 983 b 386 960 444 983 411 972 b 193 821 318 931 244 872 b 4 424 88 715 4 574 b 171 -4 4 276 50 107 l 254 -86 b 282 -115 263 -96 272 -106 b 317 -143 289 -121 303 -133 l 343 -157 b 382 -167 351 -161 365 -167 b 432 -161 389 -167 411 -167 b 479 -136 440 -160 463 -153 b 500 -83 490 -124 500 -107 b 488 -50 500 -69 496 -61 l 450 4 b 394 242 410 74 394 157 b 578 604 394 357 494 521 b 683 667 619 644 657 667 b 758 742 726 667 758 699 b 724 821 758 775 743 801 l 613 932 b 576 958 601 943 588 951 z "},")":{"ha":540,"x_min":0,"x_max":0,"o":"m 332 932 b 271 975 313 947 293 964 b 232 983 263 978 249 983 b 135 953 197 983 160 978 b 114 901 122 942 114 925 b 125 867 114 886 117 878 b 142 844 131 858 136 851 l 164 813 b 219 575 203 743 219 660 b 35 214 219 460 118 297 b -69 151 -7 172 -43 151 b -144 76 -111 151 -144 119 b -111 -3 -144 42 -129 15 l 0 -114 b 136 -167 35 -149 89 -167 b 228 -143 168 -167 201 -154 b 299 -104 254 -131 279 -115 b 610 394 460 3 610 194 b 443 821 610 542 563 711 z "},"{":{"ha":524,"x_min":0,"x_max":0,"o":"m 511 796 b 513 799 511 797 513 797 z m 36 461 l 92 404 b -11 143 32 318 -11 257 b 40 13 -11 86 8 43 l 151 -99 b 367 -167 203 -154 296 -167 l 386 -167 b 489 -64 442 -167 489 -119 b 467 -12 489 -57 485 -31 l 413 42 b 418 92 414 58 415 75 b 460 186 421 122 438 151 b 490 236 471 204 482 221 b 510 303 500 253 510 276 b 500 361 510 322 508 343 b 581 460 540 379 581 410 b 618 678 581 515 589 629 l 624 688 b 703 694 635 688 671 689 b 756 710 719 699 739 703 b 803 779 765 715 803 735 b 764 886 803 828 788 863 l 653 997 b 499 1049 610 1039 544 1049 b 232 803 363 1049 232 944 b 196 639 232 765 221 669 l 188 633 b 111 640 161 633 136 640 b 3 540 50 640 3 604 b 36 461 3 507 17 481 z m 36 461 l 35 461 z "},"}":{"ha":599,"x_min":0,"x_max":0,"o":"m 676 422 l 621 478 b 656 528 631 493 643 510 b 722 740 688 576 722 643 b 672 871 722 797 703 840 l 561 982 b 511 1017 547 996 531 1008 b 344 1049 458 1043 394 1049 l 326 1049 b 224 947 271 1049 224 1004 b 256 885 224 938 226 901 l 300 842 b 294 790 299 824 296 807 b 253 697 290 761 275 731 b 201 581 231 665 201 621 b 213 522 201 560 204 539 b 164 492 196 515 179 504 b 132 424 150 478 132 456 b 93 206 132 374 122 247 b 90 199 92 203 90 200 l 89 196 b -92 104 32 196 -92 185 b -51 -4 -92 56 -75 21 l 60 -115 b 214 -167 101 -157 168 -167 b 481 81 350 -167 481 -61 b 496 200 481 107 485 158 b 517 244 503 221 510 236 l 525 250 b 601 243 550 250 575 243 b 710 343 664 243 710 278 b 676 422 710 376 696 403 z m 500 575 b 504 583 501 576 503 579 z m 406 356 b 414 361 408 358 413 361 z "},"|":{"ha":586,"x_min":0,"x_max":0,"o":"m 521 1047 b 418 1064 482 1058 439 1064 b 296 1010 371 1064 324 1051 b 226 871 271 968 247 915 b -11 129 140 693 -11 344 b 36 -19 -11 76 -3 19 l 147 -131 b 238 -167 168 -153 199 -167 b 375 -71 299 -167 375 -144 l 374 -60 b 468 231 401 39 435 135 b 726 800 539 429 619 622 b 738 839 732 808 738 822 b 692 913 738 879 708 903 l 581 1024 b 521 1047 563 1035 540 1043 z "},"[":{"ha":483,"x_min":0,"x_max":0,"o":"m 663 1038 b 544 1086 633 1067 593 1086 b 278 939 433 1086 335 1035 b -12 133 201 806 -12 289 b 36 10 -12 79 7 39 l 147 -101 b 324 -167 194 -149 267 -167 b 503 -64 392 -167 471 -126 b 514 -22 508 -56 514 -40 b 496 25 514 -3 507 13 l 397 122 b 628 701 438 274 581 640 b 671 732 644 725 657 732 b 706 726 683 732 693 731 l 722 719 b 764 707 743 711 763 707 b 803 728 772 707 790 714 b 825 768 814 738 821 751 l 828 794 b 774 926 828 843 808 892 z m 397 53 b 388 63 390 57 389 58 z "},"]":{"ha":567,"x_min":0,"x_max":0,"o":"m -124 125 b -71 -8 -124 76 -104 26 l 42 -119 b 158 -167 69 -149 110 -167 b 425 -19 265 -167 374 -117 b 717 786 501 114 717 629 b 668 910 717 840 697 881 l 557 1021 b 381 1086 510 1068 436 1086 b 215 1004 317 1086 254 1056 b 200 982 211 1000 206 992 b 189 940 196 974 189 958 b 208 894 189 922 196 906 l 306 796 b 76 217 267 644 122 279 b 32 188 60 194 46 188 b -1 193 19 188 10 189 l -19 200 b -60 213 -39 208 -60 213 b -121 151 -89 213 -117 178 b -124 125 -124 140 -124 128 z m 307 865 l 308 864 z "},"‘":{"ha":251,"x_min":0,"x_max":0,"o":"m 204 1144 b 158 1164 192 1157 174 1164 b 100 1147 133 1164 110 1153 b 46 1108 81 1138 63 1124 b -19 961 11 1072 -19 1013 b 18 867 -19 924 -6 890 l 129 756 b 222 719 153 733 185 719 b 368 856 290 719 368 785 b 346 911 368 879 360 897 l 314 943 l 322 960 b 332 994 332 979 332 993 b 315 1033 332 1010 325 1024 z "},"’":{"ha":271,"x_min":0,"x_max":0,"o":"m 51 908 b 42 875 42 890 42 876 b 58 836 42 858 49 846 l 169 725 b 215 704 182 711 200 704 b 274 721 240 704 264 717 b 390 883 336 757 378 811 l 393 907 b 356 1001 393 944 379 978 l 244 1113 b 151 1150 221 1136 189 1150 b 6 1014 85 1150 6 1085 b 35 951 6 985 18 964 l 60 926 z "},"“":{"ha":451,"x_min":0,"x_max":0,"o":"m 256 1122 b 199 1158 244 1146 218 1158 b 140 1142 174 1158 150 1146 b 24 979 75 1104 38 1056 b 21 956 22 972 21 964 b 58 861 21 918 35 885 l 169 750 b 263 713 193 726 225 713 b 333 735 289 713 314 722 b 408 713 356 721 382 713 b 515 764 442 713 485 732 b 556 849 539 786 556 817 b 532 906 556 874 546 892 l 500 936 l 508 954 b 518 988 518 972 518 986 b 501 1028 518 1004 511 1017 l 390 1139 b 344 1158 378 1151 360 1158 b 256 1122 315 1158 279 1140 z "},"”":{"ha":424,"x_min":0,"x_max":0,"o":"m 26 913 b 15 878 17 893 15 879 b 32 839 15 863 22 849 l 143 728 b 189 708 157 715 175 708 b 244 722 214 708 236 718 l 278 743 b 336 708 289 721 315 708 b 393 725 361 708 385 719 b 511 886 456 754 499 821 l 514 911 b 475 1006 514 949 500 982 l 364 1117 b 272 1153 342 1139 310 1153 b 201 1131 246 1153 221 1144 b 125 1153 179 1146 153 1153 b -21 1017 60 1153 -21 1085 b 10 954 -21 988 -7 967 l 35 929 z "},"‚":{"ha":297,"x_min":0,"x_max":0,"o":"m 65 908 b 56 875 56 890 56 876 b 72 836 56 858 63 846 l 183 725 b 229 704 196 711 214 704 b 288 721 254 704 278 717 b 404 883 351 757 390 810 l 407 907 b 369 1001 407 944 393 978 l 258 1113 b 165 1150 235 1136 203 1150 b 19 1014 99 1150 19 1083 b 49 951 19 985 32 964 l 74 926 z "},"„":{"ha":451,"x_min":0,"x_max":0,"o":"m 61 904 b 50 871 51 885 50 871 b 67 831 50 854 57 840 l 178 719 b 224 700 192 707 210 700 b 279 715 249 700 271 711 l 313 736 b 369 700 324 713 350 700 b 428 717 396 700 419 711 b 546 878 490 746 533 813 l 549 903 b 510 997 549 940 535 974 l 399 1108 b 306 1146 376 1132 344 1146 b 235 1124 281 1146 256 1136 b 160 1146 214 1138 188 1146 b 14 1010 96 1146 14 1076 b 44 946 14 979 28 960 l 69 921 z "},"•":{"ha":426,"x_min":0,"x_max":0,"o":"m 357 671 b 239 717 331 699 292 717 b 15 499 124 717 15 615 b 67 367 15 447 35 400 l 178 256 b 301 207 208 226 250 207 b 522 414 413 207 522 300 b 468 560 522 467 507 522 z "},"_":{"ha":758,"x_min":0,"x_max":0,"o":"m 701 186 b 650 211 689 199 674 207 b 346 240 553 231 444 240 b 28 38 207 240 28 211 b 54 -31 28 11 38 -14 l 165 -142 b 231 -167 181 -157 203 -167 b 254 -164 235 -167 244 -167 l 276 -143 l 282 -149 b 458 -121 324 -129 400 -121 b 701 -153 539 -121 619 -133 l 722 -156 b 840 -3 799 -156 840 -69 b 813 75 840 21 835 53 z "},"®":{"ha":1063,"x_min":0,"x_max":0,"o":"m 897 790 b 569 922 814 872 699 922 b 33 389 282 922 33 676 b 165 64 33 260 83 146 l 276 -47 b 604 -181 360 -131 475 -181 b 1140 354 892 -181 1140 65 b 1008 679 1140 483 1090 597 z "},"©":{"ha":1042,"x_min":0,"x_max":0,"o":"m 897 790 b 569 922 814 872 699 922 b 33 389 282 922 33 676 b 165 64 33 260 83 146 l 276 -47 b 604 -181 360 -131 475 -181 b 1140 354 892 -181 1140 65 b 1008 679 1140 483 1090 597 z "},"¢":{"ha":833,"x_min":0,"x_max":0,"o":"m 31 544 b 3 374 14 490 3 432 b 93 133 3 275 35 193 l 204 22 b 322 -50 236 -10 275 -33 l 378 -106 b 481 -167 396 -139 431 -167 b 610 -76 540 -167 610 -147 b 606 -49 610 -68 608 -58 b 801 218 726 -7 801 88 l 801 278 l 690 389 l 674 388 b 679 400 676 392 678 396 l 790 400 b 950 567 888 400 950 472 b 863 756 950 640 915 710 l 871 771 b 881 810 878 788 881 800 b 829 889 881 853 850 878 l 718 1000 b 654 1017 697 1011 674 1017 b 535 935 594 1017 564 981 b 31 544 268 928 113 789 z "},"£":{"ha":783,"x_min":0,"x_max":0,"o":"m 85 274 b 53 221 74 251 64 232 b 35 207 47 214 39 208 l 19 206 l -25 174 l -18 139 b 15 92 -17 126 -7 107 l 104 1 b 126 -19 110 -6 117 -12 l 158 -39 b 260 -76 189 -57 224 -71 l 282 -79 b 492 -110 354 -79 425 -87 b 569 -142 515 -117 542 -131 b 672 -167 599 -153 636 -167 b 882 67 800 -167 882 -54 b 876 110 882 74 882 92 b 854 150 872 126 864 140 l 743 261 b 732 269 740 264 736 267 b 771 379 761 306 771 354 b 732 464 771 406 763 443 b 760 460 740 461 750 460 l 781 458 b 811 463 788 458 800 460 b 864 528 842 468 864 497 b 792 733 864 596 846 679 l 681 844 b 539 899 649 878 601 899 b 188 575 346 899 246 736 b 3 414 100 563 3 515 b 3 399 3 411 3 404 b 7 372 3 390 4 381 b 21 336 8 364 13 350 z "},"¥":{"ha":758,"x_min":0,"x_max":0,"o":"m 138 6 b 156 -18 143 -4 149 -11 l 267 -129 b 376 -167 294 -157 336 -167 b 567 24 471 -167 539 -57 b 625 18 586 21 606 18 b 751 171 701 18 751 100 b 722 246 751 193 744 224 l 681 288 b 883 617 779 367 883 485 b 846 717 883 658 869 693 l 735 828 b 638 864 713 851 679 864 b 513 806 593 864 536 847 l 444 875 b 408 901 433 885 422 893 b 261 925 363 924 306 925 b 149 731 175 925 156 796 b 139 543 139 651 139 567 b 199 400 139 488 165 438 b 186 368 194 389 190 379 b -6 208 99 354 -6 313 b -6 192 -6 204 -6 199 b -1 167 -4 183 -4 175 b 22 121 3 147 11 132 l 133 10 b 138 6 135 8 136 7 z "},"±":{"ha":717,"x_min":0,"x_max":0,"o":"m 592 186 b 550 210 582 196 568 204 b 582 306 558 242 569 274 b 701 283 622 300 661 292 l 722 281 b 840 433 799 281 840 367 b 813 511 840 456 835 489 l 728 596 l 732 606 b 743 643 738 613 743 626 b 710 710 743 676 725 697 l 599 821 b 474 860 568 846 511 860 b 371 810 446 860 400 856 b 292 675 343 765 317 721 b 28 474 164 667 28 624 b 54 406 28 447 38 422 l 165 294 b 168 292 167 293 168 292 b 186 226 171 268 176 246 b 32 157 129 217 75 197 b -21 44 6 129 -15 93 b -22 31 -22 40 -22 35 b 0 -29 -22 3 -12 -15 l 111 -140 b 179 -167 131 -160 158 -167 l 203 -165 l 229 -140 l 233 -144 b 364 -122 258 -129 317 -122 b 592 -154 439 -122 514 -136 l 614 -157 b 732 -4 688 -157 732 -69 b 703 75 732 19 726 51 z "},"×":{"ha":796,"x_min":0,"x_max":0,"o":"m 699 332 b 693 336 697 333 694 335 b 683 350 690 340 686 344 b 825 426 731 376 778 400 b 881 514 851 440 881 467 b 838 608 881 550 864 583 l 726 719 b 614 771 694 751 651 771 b 553 754 588 771 568 763 b 476 710 526 739 501 725 l 413 774 b 333 819 392 818 347 819 b 210 782 300 819 249 803 b 114 665 164 761 114 719 b 118 638 114 660 115 650 b 126 614 121 631 124 622 b 172 501 139 575 156 538 b 38 290 114 447 38 375 b 85 188 38 254 57 215 l 196 76 b 293 32 222 50 257 32 b 385 75 328 32 364 49 l 390 117 l 397 110 l 426 147 l 461 113 b 660 15 513 61 581 15 b 818 89 718 15 779 46 b 850 157 826 97 850 124 b 810 221 850 193 825 213 z m 444 690 b 436 708 442 696 439 701 z m 788 231 b 738 281 771 246 754 263 z "},"÷":{"ha":733,"x_min":0,"x_max":0,"o":"m 549 831 b 451 867 526 853 494 867 b 274 693 358 867 274 788 b 286 632 274 672 278 651 b 25 431 161 628 25 575 b 51 363 25 404 35 381 l 163 251 b 174 243 167 249 169 246 b 213 172 181 215 193 190 l 324 61 b 424 21 347 36 382 21 b 599 186 513 21 599 96 b 583 263 599 211 594 239 b 699 240 622 257 660 250 l 721 238 b 839 390 794 238 839 325 b 810 469 839 414 833 446 l 701 578 b 703 601 701 586 703 593 b 660 719 703 643 690 689 z "},",":{"ha":296,"x_min":0,"x_max":0,"o":"m 15 38 b 4 4 6 19 4 6 b 21 -36 4 -12 11 -25 l 132 -147 b 178 -167 146 -160 164 -167 b 290 -111 217 -167 264 -137 b 354 13 324 -78 346 -35 l 356 36 b 318 131 356 74 342 107 l 207 242 b 114 279 185 265 151 279 b 8 228 82 279 39 260 b -32 143 -15 206 -32 175 b -1 79 -32 114 -19 93 l 24 54 z "},".":{"ha":322,"x_min":0,"x_max":0,"o":"m 268 207 b 178 240 247 226 218 240 b 14 81 92 240 14 168 b 54 -18 14 43 28 7 l 165 -129 b 258 -167 188 -153 219 -167 b 419 -14 342 -167 419 -99 b 379 96 419 24 408 67 z "},"…":{"ha":967,"x_min":0,"x_max":0,"o":"m 268 207 b 178 240 247 226 218 240 b 14 81 92 240 14 168 b 54 -18 14 43 28 7 l 165 -129 b 258 -167 188 -153 219 -167 b 413 -56 326 -167 393 -121 l 488 -129 b 581 -167 510 -153 542 -167 b 735 -56 649 -167 715 -121 l 810 -129 b 903 -167 832 -153 864 -167 b 1064 -14 986 -167 1064 -99 b 1024 96 1064 24 1053 67 l 913 207 b 822 240 892 226 863 240 b 667 129 753 240 689 194 l 590 207 b 500 240 569 226 540 240 b 344 129 431 240 367 194 z "},"¿":{"ha":876,"x_min":0,"x_max":0,"o":"m 615 867 b 613 867 614 867 614 867 b 549 803 571 860 549 822 b 417 675 549 732 474 697 b 322 636 388 661 354 650 b 26 282 154 571 26 479 b 119 29 26 181 58 92 l 231 -82 b 456 -167 283 -135 358 -167 b 913 206 667 -167 913 -31 b 874 283 913 240 893 267 l 764 394 b 917 585 836 433 917 494 b 860 722 917 639 899 689 b 1021 906 947 738 1021 815 b 975 1019 1021 950 1004 990 l 864 1131 b 758 1172 839 1156 803 1172 b 569 996 663 1172 569 1094 b 615 867 569 950 581 900 z "},"¼":{"ha":1303,"x_min":0,"x_max":0,"o":"m 154 732 b 103 508 129 664 103 579 b 143 393 103 474 111 425 l 253 283 b 192 74 217 204 192 129 b 226 -22 192 35 204 1 l 338 -133 b 429 -167 358 -154 390 -167 b 579 -62 496 -167 571 -137 b 722 199 622 24 669 113 l 833 88 b 856 71 840 81 847 75 b 893 -10 860 43 871 13 l 1004 -121 b 1090 -153 1022 -140 1050 -153 b 1178 -125 1121 -153 1156 -147 b 1199 -74 1189 -112 1199 -97 b 1193 -51 1199 -65 1193 -60 b 1343 376 1193 47 1299 282 b 1350 407 1347 385 1350 394 b 1321 467 1350 436 1335 456 l 1210 578 b 1171 601 1197 589 1182 596 b 1103 614 1147 610 1121 614 b 1010 567 1082 614 1035 611 b 1001 553 1007 561 1004 557 l 968 586 b 983 608 972 593 978 601 b 1094 756 1019 658 1057 707 b 1113 807 1101 767 1113 783 b 1075 879 1113 842 1092 865 l 964 990 b 810 1038 924 1021 860 1038 b 682 983 772 1038 718 1031 b 589 849 650 940 619 894 b 572 869 585 857 578 864 l 461 981 b 354 1017 436 1003 388 1017 b 274 986 321 1017 299 1008 b 124 792 231 950 124 853 b 154 732 124 763 139 743 z "},"½":{"ha":1322,"x_min":0,"x_max":0,"o":"m 150 708 b 99 485 125 640 99 554 b 139 369 99 450 107 401 l 244 263 b 193 74 214 192 193 125 b 228 -22 193 35 206 1 l 339 -133 b 431 -167 360 -154 392 -167 b 581 -62 497 -167 572 -137 b 650 69 603 -18 625 25 b 667 47 654 61 660 53 l 778 -65 b 819 -92 790 -76 804 -85 b 929 -104 854 -104 893 -104 b 1053 -101 971 -104 1013 -104 b 1253 78 1168 -89 1253 -51 b 1244 122 1253 89 1250 107 b 1208 172 1239 146 1224 163 b 1251 210 1224 183 1239 196 b 1318 361 1290 247 1318 296 b 1269 492 1318 418 1300 461 l 1158 603 b 1022 660 1118 640 1076 653 b 1096 756 1046 692 1071 724 b 1114 807 1103 767 1114 783 b 1076 879 1114 842 1093 865 l 965 990 b 811 1038 925 1021 861 1038 b 683 983 774 1038 719 1031 b 581 832 647 935 614 883 b 568 846 576 838 572 842 l 457 957 b 350 993 432 979 382 993 b 269 961 318 993 294 985 b 119 768 226 925 119 831 b 150 708 119 738 135 719 z "},"¾":{"ha":1458,"x_min":0,"x_max":0,"o":"m 114 543 b 158 419 114 489 131 447 l 269 308 b 367 263 294 283 329 268 b 315 74 336 192 315 125 b 350 -22 315 35 328 1 l 461 -133 b 553 -167 482 -154 514 -167 b 703 -62 619 -167 694 -137 b 844 200 746 24 793 113 l 946 99 b 967 81 953 92 960 86 b 1004 1 972 53 982 24 l 1115 -110 b 1203 -143 1135 -129 1163 -143 b 1250 -136 1211 -143 1231 -142 b 1289 -114 1258 -135 1275 -128 b 1310 -62 1301 -103 1310 -86 b 1306 -42 1310 -54 1306 -50 b 1456 386 1306 60 1408 289 b 1463 418 1458 394 1463 406 b 1433 478 1463 446 1446 467 l 1322 589 b 1215 625 1297 611 1249 625 b 1122 576 1194 625 1147 621 b 1114 563 1119 572 1117 568 l 1092 586 b 1107 608 1096 593 1101 600 b 1218 756 1143 658 1181 707 b 1236 807 1225 767 1236 783 b 1199 879 1236 842 1215 865 l 1088 990 b 933 1038 1047 1021 983 1038 b 806 983 896 1038 842 1031 b 718 857 775 943 746 900 b 713 864 717 858 714 861 l 601 975 b 404 1038 549 1026 465 1038 b 197 910 310 1038 240 990 b 179 836 189 892 179 864 b 214 742 179 793 193 763 l 257 697 b 254 678 256 692 254 685 b 114 543 178 678 114 622 z "},"§":{"ha":713,"x_min":0,"x_max":0,"o":"m 167 386 b -56 185 61 386 -56 318 b 7 32 -56 118 -31 68 l 118 -79 b 347 -167 179 -142 274 -167 b 721 88 504 -167 721 -104 b 703 163 721 115 713 140 b 813 351 767 208 813 268 b 765 478 813 401 790 444 l 736 511 l 763 508 b 914 689 858 508 914 600 b 858 828 914 749 892 793 l 747 939 b 515 1024 683 1001 582 1024 b 211 786 378 1024 211 940 b 228 704 211 757 218 729 b 119 522 165 658 119 606 b 167 386 119 468 140 422 z m 338 82 b 332 88 335 83 333 86 z "},"~":{"ha":456,"x_min":0,"x_max":0,"o":"m 467 989 b 319 1057 431 1031 375 1057 b 204 1036 279 1057 242 1049 b 158 1015 190 1031 175 1022 l 136 1007 l 126 1015 b 99 1039 118 1024 108 1032 b 43 1054 83 1047 65 1054 b -56 932 -25 1054 -56 992 b -19 843 -56 893 -40 864 l 92 732 b 231 678 132 692 196 678 b 413 764 317 678 357 708 b 439 754 424 763 431 758 l 457 742 b 500 728 474 732 488 728 b 597 824 553 728 597 771 b 556 899 597 857 579 879 z "},"˘":{"ha":361,"x_min":0,"x_max":0,"o":"m 197 1078 b 107 1125 175 1107 139 1125 b 25 1079 68 1125 42 1101 b -14 899 -7 1031 -14 954 b 32 771 -14 857 -3 804 l 143 660 b 242 622 165 638 197 622 b 494 888 338 622 494 797 b 464 967 494 922 482 949 l 353 1078 b 264 1113 329 1101 296 1113 b 215 1094 240 1113 224 1101 b 197 1078 210 1089 203 1083 z "},"˚":{"ha":388,"x_min":0,"x_max":0,"o":"m 21 892 b 60 790 21 847 36 814 l 171 679 b 285 635 200 650 242 635 b 503 883 406 635 503 771 b 467 982 503 928 489 960 l 356 1093 b 244 1133 328 1121 286 1133 b 21 892 121 1133 21 1007 z "},"ˇ":{"ha":299,"x_min":0,"x_max":0,"o":"m 188 1065 b 96 1113 164 1096 128 1113 b -25 888 -10 1113 -25 967 b 21 758 -25 846 -14 793 l 132 647 b 231 610 154 625 186 610 b 483 876 325 610 483 786 b 453 956 483 910 471 936 l 342 1067 b 253 1101 318 1089 285 1101 b 204 1083 229 1101 213 1089 b 188 1065 199 1078 192 1071 z "},"`":{"ha":317,"x_min":0,"x_max":0,"o":"m 232 1124 b 140 1175 215 1144 183 1175 b 8 1063 72 1175 8 1135 b 126 818 8 1011 56 889 l 238 707 b 347 653 269 674 307 653 b 450 751 414 653 450 683 b 315 1040 450 825 379 990 z "},"ˆ":{"ha":424,"x_min":0,"x_max":0,"o":"m 357 1078 b 258 1115 335 1100 303 1115 b 6 849 161 1115 6 940 b 36 769 6 815 18 789 l 147 658 b 236 624 171 636 204 624 b 283 642 258 624 275 636 l 301 660 b 392 613 324 629 361 613 b 501 726 456 613 490 669 b 514 838 513 771 514 818 b 468 967 514 881 503 932 z "},"¨":{"ha":556,"x_min":0,"x_max":0,"o":"m 481 1049 b 393 1082 461 1069 432 1082 b 283 1038 353 1082 313 1065 b 185 1082 264 1064 232 1082 b 26 928 101 1082 26 1013 b 64 831 26 890 40 856 l 175 719 b 267 685 197 699 228 685 b 376 728 304 685 346 700 b 475 685 399 701 432 685 b 631 832 556 685 631 750 b 592 938 631 868 621 910 z "},"´":{"ha":399,"x_min":0,"x_max":0,"o":"m 381 1072 b 308 1101 364 1089 340 1101 b 0 860 214 1101 0 974 b 31 776 0 825 11 796 l 142 665 b 224 635 161 646 189 635 b 529 868 315 635 529 757 b 492 961 529 894 519 935 z "},"¸":{"ha":550,"x_min":0,"x_max":0,"o":"m 235 -215 b 232 -217 233 -217 233 -217 l 222 -207 l 225 -206 z m 431 85 b 331 121 400 115 353 121 b 283 115 314 121 299 119 l 265 111 l 254 97 b 140 -90 215 56 150 -32 b -17 -261 53 -99 -17 -174 b 25 -364 -17 -306 1 -339 l 136 -475 b 343 -543 190 -526 271 -543 b 650 -267 507 -543 650 -439 b 600 -136 650 -211 632 -167 l 553 -89 l 574 -58 z "},"Þ":{"ha":732,"x_min":0,"x_max":0,"o":"m 451 881 b 401 908 436 893 418 903 b 313 928 371 921 335 928 b 200 867 286 928 226 922 b 149 742 181 826 165 783 b 15 181 89 588 15 357 b 75 -14 15 110 25 40 l 186 -125 b 292 -167 211 -150 246 -167 b 353 -160 304 -167 329 -167 b 399 -133 364 -156 383 -149 b 422 -76 413 -121 422 -103 b 414 -42 422 -61 418 -56 l 415 -32 l 415 -19 b 496 -31 443 -28 472 -31 b 853 407 722 -31 853 203 b 779 617 853 478 833 561 l 668 728 b 653 742 663 732 658 738 b 549 782 625 763 592 778 z "},"þ":{"ha":735,"x_min":0,"x_max":0,"o":"m 439 881 b 389 908 424 893 406 903 b 300 928 358 921 322 928 b 188 867 274 928 214 922 b 136 742 168 826 153 783 b 3 181 76 588 3 357 b 63 -14 3 110 13 40 l 174 -125 b 279 -167 199 -150 233 -167 b 340 -160 292 -167 317 -167 b 386 -133 351 -156 371 -149 b 410 -76 400 -121 410 -103 b 401 -42 410 -61 406 -56 l 403 -32 l 403 -19 b 483 -31 431 -28 460 -31 b 840 407 710 -31 840 203 b 767 617 840 478 821 561 l 656 728 b 640 742 650 732 646 738 b 536 782 613 763 579 778 z "},"ß":{"ha":814,"x_min":0,"x_max":0,"o":"m 715 968 b 507 1038 661 1025 582 1038 b 201 893 381 1038 283 986 b 154 818 186 874 167 847 b -36 164 85 656 -36 358 b 17 1 -36 118 -28 46 l 128 -110 b 238 -150 153 -135 188 -150 b 342 -119 274 -150 314 -144 b 443 -167 365 -147 400 -167 l 465 -165 b 767 163 636 -133 728 3 b 779 260 774 193 779 226 b 767 344 779 286 776 315 b 903 647 856 419 903 540 b 826 857 903 722 882 803 z "},"Æ":{"ha":2029,"x_min":0,"x_max":0,"o":"m 871 124 b 975 -112 878 25 917 -54 l 1086 -224 b 1407 -344 1167 -303 1283 -344 b 1961 3 1651 -344 1876 -235 b 1979 107 1972 35 1979 69 b 1915 267 1979 174 1954 228 l 1804 378 b 1782 397 1797 385 1790 390 b 1847 388 1807 390 1831 388 b 2118 701 2018 388 2118 542 b 2022 942 2118 794 2083 881 l 1911 1053 b 1646 1144 1836 1128 1747 1144 b 1268 1001 1506 1144 1367 1100 b 1242 971 1260 992 1250 982 l 1185 1029 b 819 1147 1092 1121 949 1147 b 346 981 667 1147 467 1107 b 243 757 293 926 243 847 b 297 614 243 696 264 647 l 408 503 b 556 444 444 467 497 446 b 544 429 551 439 547 435 b 439 299 513 383 479 339 b 432 304 436 301 435 303 l 321 415 b 281 431 308 422 293 428 b 219 440 258 438 232 440 b -56 132 58 440 -56 283 b 31 -75 -56 49 -22 -22 l 142 -186 b 375 -281 201 -246 288 -281 b 792 -1 568 -281 689 -144 b 871 124 819 40 847 82 z m 319 289 b 332 301 324 294 328 299 z m 1500 231 b 1358 153 1468 182 1415 158 b 1389 196 1365 168 1375 182 b 1476 254 1413 222 1444 239 z "},"œ":{"ha":994,"x_min":0,"x_max":0,"o":"m 538 743 b 336 818 492 790 425 818 b -83 315 76 818 -83 551 b -3 100 -83 222 -53 150 l 110 -11 b 353 -100 168 -71 256 -100 b 547 -36 429 -100 494 -75 b 758 -104 604 -81 678 -104 b 1150 169 939 -104 1072 17 b 1201 301 1169 207 1192 254 l 1204 331 b 1175 403 1204 356 1196 383 l 1074 506 b 1014 646 1069 564 1049 613 l 903 757 b 738 818 864 797 807 818 b 539 742 663 818 596 789 z m 722 531 b 742 556 728 539 735 547 z "},"æ":{"ha":990,"x_min":0,"x_max":0,"o":"m 900 767 b 832 810 882 785 860 799 b 678 828 782 822 729 828 b 493 778 621 828 535 821 b 331 819 440 813 375 819 b -85 319 81 819 -85 547 b -14 115 -85 253 -67 168 l 99 4 b 238 -50 131 -29 175 -50 b 464 46 324 -50 403 -11 l 521 -12 b 757 -101 581 -71 667 -101 b 1149 172 939 -101 1068 21 b 1199 304 1168 210 1189 256 l 1201 332 b 1174 404 1201 358 1192 385 l 1072 506 b 1011 656 1068 556 1053 614 z "},"Œ":{"ha":1469,"x_min":0,"x_max":0,"o":"m 56 701 b -58 360 -11 603 -58 485 b 64 50 -58 247 -15 129 l 175 -61 b 417 -160 235 -121 315 -160 b 693 -74 524 -160 615 -126 l 711 -93 b 1001 -203 783 -165 889 -203 b 1503 113 1219 -203 1428 -100 b 1519 207 1513 142 1519 174 b 1460 354 1519 269 1496 318 l 1360 454 b 1396 451 1372 453 1385 451 b 1643 739 1551 451 1643 594 b 1556 957 1643 822 1611 901 l 1444 1068 b 1201 1153 1376 1136 1293 1153 b 851 1013 1065 1153 949 1110 l 821 1044 b 511 1153 749 1117 643 1153 b 47 763 283 1153 47 1011 b 56 701 47 747 49 724 z m 650 776 b 571 501 642 683 613 585 b 547 569 571 528 565 549 l 519 597 l 519 603 b 650 776 519 676 582 751 z m 522 417 b 429 326 499 383 465 346 b 438 383 431 344 433 364 b 522 417 468 388 497 399 z m 1064 328 b 979 271 1047 301 1015 281 b 1033 315 990 288 1017 307 b 1061 331 1042 321 1051 326 z m 1175 260 b 1188 247 1186 254 1188 247 z "},"È":{"ha":944,"x_min":0,"x_max":0,"o":"m 729 1522 b 597 1410 661 1522 597 1482 b 715 1164 597 1358 644 1236 l 729 1150 b 676 1153 711 1151 694 1153 b 260 914 499 1153 340 1075 b 222 757 238 867 222 813 b 242 658 222 728 226 692 b -21 263 89 582 -21 439 b 75 19 -21 160 15 78 l 186 -93 b 476 -203 258 -165 364 -203 b 978 113 694 -203 903 -100 b 994 207 988 142 994 174 b 935 354 994 269 971 318 l 835 454 b 871 451 847 453 860 451 b 1118 739 1026 451 1118 594 b 1031 957 1118 822 1086 901 l 982 1006 b 1014 1025 994 1010 1004 1017 b 1039 1099 1029 1040 1039 1064 b 932 1358 1039 1167 979 1304 b 904 1388 925 1368 917 1378 l 821 1469 b 729 1522 804 1492 772 1522 z "},"É":{"ha":944,"x_min":0,"x_max":0,"o":"m 964 1419 b 892 1449 947 1436 924 1449 b 582 1206 797 1449 582 1319 b 596 1147 582 1183 588 1164 b 260 914 447 1126 326 1049 b 222 757 238 867 222 813 b 242 658 222 728 226 692 b -21 263 89 582 -21 439 b 75 19 -21 160 15 78 l 186 -93 b 476 -203 258 -165 364 -203 b 978 113 694 -203 903 -100 b 994 207 988 142 994 174 b 935 354 994 269 971 318 l 835 454 b 871 451 847 453 860 451 b 1118 739 1026 451 1118 594 b 1031 957 1118 822 1086 901 l 954 1033 b 1111 1215 1017 1068 1111 1135 b 1075 1308 1111 1242 1101 1282 z m 539 328 b 454 271 522 301 490 281 b 508 315 465 288 492 307 b 536 331 517 321 526 326 z m 650 260 b 663 247 661 254 663 247 z "},"Ê":{"ha":944,"x_min":0,"x_max":0,"o":"m 961 1431 b 863 1467 939 1453 907 1467 b 610 1201 765 1467 610 1293 b 621 1150 610 1181 614 1164 b 260 914 463 1133 332 1057 b 222 757 238 867 222 813 b 242 658 222 728 226 692 b -21 263 89 582 -21 439 b 75 19 -21 160 15 78 l 186 -93 b 476 -203 258 -165 364 -203 b 978 113 694 -203 903 -100 b 994 207 988 142 994 174 b 935 354 994 269 971 318 l 835 454 b 871 451 847 453 860 451 b 1118 739 1026 451 1118 594 b 1031 957 1118 822 1086 901 l 1019 968 b 1106 1079 1071 982 1096 1031 b 1118 1190 1117 1122 1118 1171 b 1072 1319 1118 1232 1106 1285 z m 539 328 b 454 271 522 301 490 281 b 508 315 465 288 492 307 b 536 331 517 321 526 326 z m 650 260 b 663 247 661 254 663 247 z "},"Ë":{"ha":944,"x_min":0,"x_max":0,"o":"m 967 1344 b 879 1378 947 1364 919 1378 b 769 1332 839 1378 799 1360 b 671 1378 750 1358 718 1378 b 513 1222 588 1378 513 1306 b 542 1136 513 1190 522 1160 b 222 757 367 1092 222 943 b 242 658 222 728 226 692 b -21 263 89 582 -21 439 b 75 19 -21 160 15 78 l 186 -93 b 476 -203 258 -165 364 -203 b 978 113 694 -203 903 -100 b 994 207 988 142 994 174 b 935 354 994 269 971 318 l 835 454 b 871 451 847 453 860 451 b 1118 739 1026 451 1118 594 b 1031 957 1118 822 1086 901 l 1003 985 b 1118 1126 1065 1004 1118 1057 b 1078 1233 1118 1163 1107 1204 z m 539 328 b 454 271 522 301 490 281 b 508 315 465 288 492 307 b 536 331 517 321 526 326 z m 650 260 b 663 247 661 254 663 247 z "},"Ì":{"ha":744,"x_min":0,"x_max":0,"o":"m 597 1504 b 494 1465 571 1504 524 1496 b 465 1392 476 1449 465 1425 b 582 1146 465 1339 511 1218 l 614 1114 b 450 1142 564 1135 506 1142 b 71 978 300 1142 171 1078 b 43 949 61 968 53 958 b -53 736 -1 897 -53 824 b -1 604 -53 681 -33 636 l 110 493 b 257 436 147 456 201 436 b 315 442 265 436 289 438 b 240 178 281 367 240 264 b 285 53 240 122 257 82 l 396 -58 b 533 -106 429 -92 478 -106 b 647 -17 589 -106 647 -82 b 644 -4 647 -12 644 -8 l 653 38 b 775 375 678 153 724 265 b 889 757 824 478 889 625 b 819 944 889 842 861 901 l 779 983 b 803 982 788 982 794 982 b 881 1007 835 982 863 988 b 906 1081 897 1022 906 1046 b 800 1340 906 1147 847 1288 b 772 1369 793 1350 783 1360 l 689 1451 b 597 1504 671 1474 640 1504 z "},"Í":{"ha":744,"x_min":0,"x_max":0,"o":"m 804 1394 b 732 1422 788 1411 764 1422 b 422 1181 636 1422 422 1294 b 428 1142 422 1167 425 1154 b 71 978 288 1136 165 1072 b 43 949 61 968 53 958 b -53 736 -1 897 -53 824 b -1 604 -53 681 -33 636 l 110 493 b 257 436 147 456 201 436 b 315 442 265 436 289 438 b 240 178 281 367 240 264 b 285 53 240 122 257 82 l 396 -58 b 533 -106 429 -92 478 -106 b 647 -17 589 -106 647 -82 b 644 -4 647 -12 644 -8 l 653 38 b 775 375 678 153 724 265 b 889 757 824 478 889 625 b 819 944 889 842 861 901 l 768 994 b 951 1189 838 1028 951 1103 b 915 1283 951 1215 942 1257 z "},"Î":{"ha":744,"x_min":0,"x_max":0,"o":"m 315 442 b 240 178 281 367 240 264 b 285 53 240 122 257 82 l 396 -58 b 533 -106 429 -92 478 -106 b 647 -17 589 -106 647 -82 b 644 -4 647 -12 644 -8 l 653 38 b 775 375 678 153 724 265 b 889 757 824 478 889 625 b 819 944 889 842 861 901 l 813 951 b 929 1176 914 956 929 1099 b 883 1304 929 1218 917 1271 l 772 1415 b 674 1453 750 1438 718 1453 b 421 1188 576 1453 421 1279 b 429 1142 421 1169 424 1154 b 71 978 289 1136 165 1072 b 43 949 61 968 53 958 b -53 736 -1 897 -53 824 b -1 604 -53 681 -33 636 l 110 493 b 257 436 147 456 201 436 b 315 442 265 436 289 438 z "},"Ï":{"ha":744,"x_min":0,"x_max":0,"o":"m 315 442 b 240 178 281 367 240 264 b 285 53 240 122 257 82 l 396 -58 b 533 -106 429 -92 478 -106 b 647 -17 589 -106 647 -82 b 644 -4 647 -12 644 -8 l 653 38 b 775 375 678 153 724 265 b 889 757 824 478 889 625 b 822 940 889 839 863 899 b 978 1089 904 943 978 1004 b 939 1194 978 1125 967 1167 l 828 1306 b 740 1339 807 1326 779 1339 b 629 1293 699 1339 660 1322 b 532 1339 610 1321 578 1339 b 374 1183 447 1339 374 1269 b 381 1138 374 1168 375 1151 b 71 978 260 1121 154 1061 b 43 949 61 968 53 958 b -53 736 -1 897 -53 824 b -1 604 -53 681 -33 636 l 110 493 b 257 436 147 456 201 436 b 315 442 265 436 289 438 z "},"Ñ":{"ha":1215,"x_min":0,"x_max":0,"o":"m 1193 942 b 1153 971 1182 954 1168 964 b 1182 1004 1164 983 1174 996 b 1232 989 1204 1004 1219 997 l 1256 972 b 1304 956 1274 960 1289 956 b 1413 1065 1364 956 1413 1006 b 1357 1158 1413 1113 1375 1144 l 1246 1269 b 1103 1322 1204 1301 1157 1322 b 960 1294 1051 1322 1006 1313 b 900 1268 942 1288 921 1276 b 863 1256 881 1258 869 1256 l 853 1261 l 844 1271 b 831 1285 839 1275 835 1281 b 746 1318 803 1306 782 1318 b 635 1172 667 1318 635 1240 b 654 1103 635 1144 644 1119 b 657 1096 656 1100 656 1099 b 447 1146 597 1132 519 1146 b 68 982 297 1146 168 1082 b 40 953 58 972 50 963 b -56 740 -4 901 -56 828 b -4 608 -56 685 -36 640 l 107 497 b 254 440 144 460 199 440 b 313 446 263 440 286 442 b 238 182 278 371 238 268 b 282 57 238 126 254 86 l 393 -54 b 531 -101 426 -87 475 -101 b 644 -12 586 -101 644 -78 b 642 0 644 -8 642 -4 b 672 131 642 15 668 122 b 728 236 688 163 707 199 b 725 182 726 218 725 200 b 797 -35 725 111 740 22 l 908 -146 b 1054 -200 942 -178 988 -200 b 1285 40 1182 -200 1285 -85 b 1282 72 1285 44 1285 58 b 1261 108 1281 76 1275 94 l 1174 196 b 1226 382 1183 249 1201 313 b 1328 643 1260 479 1301 578 b 1346 725 1338 665 1346 693 b 1304 831 1346 772 1329 807 z "},"À":{"ha":1317,"x_min":0,"x_max":0,"o":"m 1006 1533 b 874 1419 936 1533 874 1493 b 992 1175 874 1368 921 1246 l 1058 1108 b 818 1149 988 1138 906 1149 b 343 982 665 1149 464 1107 b 242 758 292 928 242 849 b 296 615 242 697 263 650 l 407 504 b 558 447 444 467 497 447 b 482 346 535 414 510 378 b 447 307 469 331 458 318 b 440 301 444 306 443 303 b 435 306 439 303 436 304 l 324 417 b 283 433 310 425 296 429 b 222 442 260 439 235 442 b -53 135 63 442 -53 286 b 33 -72 -53 51 -19 -21 l 144 -183 b 376 -278 204 -243 289 -278 b 864 111 610 -278 754 -68 b 915 3 871 67 888 29 l 1026 -110 b 1171 -161 1060 -142 1108 -161 b 1400 -7 1272 -161 1364 -103 b 1418 76 1410 18 1418 46 b 1414 111 1418 82 1417 96 b 1393 146 1413 115 1407 132 l 1317 222 l 1318 228 b 1365 425 1333 293 1351 360 b 1392 638 1381 496 1392 565 b 1292 919 1392 765 1354 857 l 1200 1011 b 1213 1010 1204 1011 1208 1010 b 1315 1110 1279 1010 1315 1043 b 1210 1369 1315 1182 1256 1310 b 1181 1397 1201 1378 1193 1389 l 1099 1481 b 1006 1533 1081 1501 1049 1533 z m 983 611 b 1007 644 992 622 1000 633 z m 321 290 b 333 303 326 296 331 300 z "},"Á":{"ha":1317,"x_min":0,"x_max":0,"o":"m 1285 1446 b 1213 1474 1268 1463 1244 1474 b 904 1232 1118 1474 904 1346 b 935 1149 904 1197 915 1168 l 943 1139 b 818 1149 903 1146 861 1149 b 343 982 665 1149 464 1107 b 242 758 292 928 242 849 b 296 615 242 697 263 650 l 407 504 b 558 447 444 467 497 447 b 482 346 535 414 510 378 b 447 307 469 331 458 318 b 440 301 444 306 443 303 b 435 306 439 303 436 304 l 324 417 b 283 433 310 425 296 429 b 222 442 260 439 235 442 b -53 135 63 442 -53 286 b 33 -72 -53 51 -19 -21 l 144 -183 b 376 -278 204 -243 289 -278 b 864 111 610 -278 754 -68 b 915 3 871 67 888 29 l 1026 -110 b 1171 -161 1060 -142 1108 -161 b 1400 -7 1272 -161 1364 -103 b 1418 76 1410 18 1418 46 b 1414 111 1418 82 1417 96 b 1393 146 1413 115 1407 132 l 1317 222 l 1318 228 b 1365 425 1333 293 1351 360 b 1392 638 1381 496 1392 565 b 1292 919 1392 765 1354 857 l 1190 1021 b 1432 1240 1272 1049 1432 1136 b 1396 1335 1432 1267 1424 1307 z m 321 290 b 333 303 326 296 331 300 z "},"Â":{"ha":1317,"x_min":0,"x_max":0,"o":"m 1147 1410 b 1049 1447 1125 1432 1093 1447 b 796 1182 953 1447 796 1272 b 800 1149 796 1169 797 1158 b 343 982 650 1146 458 1103 b 242 758 292 928 242 849 b 296 615 242 697 263 650 l 407 504 b 558 447 444 467 497 447 b 482 346 535 414 510 378 b 447 307 469 331 458 318 b 440 301 444 306 443 303 b 435 306 439 303 436 304 l 324 417 b 283 433 310 425 296 429 b 222 442 260 439 235 442 b -53 135 63 442 -53 286 b 33 -72 -53 51 -19 -21 l 144 -183 b 376 -278 204 -243 289 -278 b 864 111 610 -278 754 -68 b 915 3 871 67 888 29 l 1026 -110 b 1171 -161 1060 -142 1108 -161 b 1400 -7 1272 -161 1364 -103 b 1418 76 1410 18 1418 46 b 1414 111 1418 82 1417 96 b 1393 146 1413 115 1407 132 l 1317 222 l 1318 228 b 1365 425 1333 293 1351 360 b 1392 638 1381 496 1392 565 b 1292 919 1392 765 1354 857 l 1243 967 b 1265 990 1251 974 1258 982 b 1304 1171 1297 1039 1304 1115 b 1258 1299 1304 1213 1293 1265 z m 321 290 b 333 303 326 296 331 300 z "},"Ã":{"ha":1317,"x_min":0,"x_max":0,"o":"m 828 1410 b 733 1344 788 1410 746 1383 b 717 1264 719 1317 717 1285 b 768 1150 717 1222 739 1179 l 771 1147 b 343 982 625 1139 451 1094 b 242 758 292 928 242 849 b 296 615 242 697 263 650 l 407 504 b 558 447 444 467 497 447 b 482 346 535 414 510 378 b 447 307 469 331 458 318 b 440 301 444 306 443 303 b 435 306 439 303 436 304 l 324 417 b 283 433 310 425 296 429 b 222 442 260 439 235 442 b -53 135 63 442 -53 286 b 33 -72 -53 51 -19 -21 l 144 -183 b 376 -278 204 -243 289 -278 b 864 111 610 -278 754 -68 b 915 3 871 67 888 29 l 1026 -110 b 1171 -161 1060 -142 1108 -161 b 1400 -7 1272 -161 1364 -103 b 1418 76 1410 18 1418 46 b 1414 111 1418 82 1417 96 b 1393 146 1413 115 1407 132 l 1317 222 l 1318 228 b 1365 425 1333 293 1351 360 b 1392 638 1381 496 1392 565 b 1292 919 1392 765 1354 857 l 1189 1022 b 1225 1053 1203 1032 1214 1042 b 1264 1094 1240 1067 1253 1085 b 1314 1079 1286 1094 1300 1088 l 1336 1064 b 1386 1047 1354 1051 1371 1047 b 1494 1157 1446 1047 1494 1097 b 1439 1250 1494 1203 1457 1236 l 1328 1361 b 1185 1414 1289 1392 1235 1414 b 982 1358 1104 1414 1051 1390 b 944 1347 963 1350 951 1347 l 935 1353 l 925 1363 b 911 1375 921 1367 917 1371 b 828 1410 888 1399 861 1410 z m 321 290 b 333 303 326 296 331 300 z "},"Ä":{"ha":1317,"x_min":0,"x_max":0,"o":"m 1258 1346 b 1171 1379 1239 1365 1211 1379 b 1061 1333 1131 1379 1090 1361 b 963 1379 1042 1360 1010 1379 b 804 1224 879 1379 804 1307 b 825 1149 804 1196 811 1171 b 343 982 658 1149 463 1106 b 242 758 292 928 242 849 b 296 615 242 697 263 650 l 407 504 b 558 447 444 467 497 447 b 482 346 535 414 510 378 b 447 307 469 331 458 318 b 440 301 444 306 443 303 b 435 306 439 303 436 304 l 324 417 b 283 433 310 425 296 429 b 222 442 260 439 235 442 b -53 135 63 442 -53 286 b 33 -72 -53 51 -19 -21 l 144 -183 b 376 -278 204 -243 289 -278 b 864 111 610 -278 754 -68 b 915 3 871 67 888 29 l 1026 -110 b 1171 -161 1060 -142 1108 -161 b 1400 -7 1272 -161 1364 -103 b 1418 76 1410 18 1418 46 b 1414 111 1418 82 1417 96 b 1393 146 1413 115 1407 132 l 1317 222 l 1318 228 b 1365 425 1333 293 1351 360 b 1392 638 1381 496 1392 565 b 1292 919 1392 765 1354 857 l 1228 982 b 1253 981 1236 981 1244 981 b 1410 1129 1333 981 1410 1047 b 1369 1235 1410 1165 1399 1207 z m 321 290 b 333 303 326 296 331 300 z "},"Å":{"ha":1317,"x_min":0,"x_max":0,"o":"m 956 1221 b 983 1132 956 1185 965 1154 b 818 1149 932 1143 875 1149 b 343 982 665 1149 464 1107 b 242 758 292 928 242 849 b 296 615 242 697 263 650 l 407 504 b 558 447 444 467 497 447 b 482 346 535 414 510 378 b 447 307 469 331 458 318 b 440 301 444 306 443 303 b 435 306 439 303 436 304 l 324 417 b 283 433 310 425 296 429 b 222 442 260 439 235 442 b -53 135 63 442 -53 286 b 33 -72 -53 51 -19 -21 l 144 -183 b 376 -278 204 -243 289 -278 b 864 111 610 -278 754 -68 b 915 3 871 67 888 29 l 1026 -110 b 1171 -161 1060 -142 1108 -161 b 1400 -7 1272 -161 1364 -103 b 1418 76 1410 18 1418 46 b 1414 111 1418 82 1417 96 b 1393 146 1413 115 1407 132 l 1317 222 l 1318 228 b 1365 425 1333 293 1351 360 b 1392 638 1381 496 1392 565 b 1292 919 1392 765 1354 857 l 1244 965 b 1438 1213 1353 983 1438 1107 b 1401 1311 1438 1257 1424 1289 l 1290 1422 b 1178 1463 1263 1450 1221 1463 b 956 1221 1057 1463 956 1336 z m 321 290 b 333 303 326 296 331 300 z "},"Ç":{"ha":989,"x_min":0,"x_max":0,"o":"m 35 356 b 149 49 35 235 72 125 l 254 -57 b 243 -92 250 -67 246 -79 b 86 -262 157 -97 86 -176 b 129 -365 86 -307 104 -340 l 240 -476 b 446 -544 290 -526 378 -544 b 754 -268 608 -544 754 -439 b 713 -147 754 -218 738 -178 b 1007 139 863 -107 963 -10 b 1019 226 1015 165 1019 194 b 963 371 1019 288 997 336 l 906 428 b 1151 714 1054 431 1151 574 b 1061 931 1151 801 1117 875 l 950 1042 b 661 1147 874 1118 767 1147 b 310 994 515 1147 400 1085 b 35 356 161 846 35 569 z m 699 550 b 674 551 690 550 682 551 b 606 542 657 551 632 549 b 643 614 617 564 629 589 b 664 585 649 601 656 592 z m 568 328 b 535 310 561 321 550 314 b 540 357 535 325 538 340 z m 672 263 b 690 246 685 260 690 250 z "},"Ð":{"ha":1193,"x_min":0,"x_max":0,"o":"m 194 322 b 58 125 103 322 58 203 b 126 -43 58 53 86 -3 l 238 -154 b 572 -260 325 -237 456 -260 b 1200 174 869 -260 1089 -94 b 1276 531 1249 286 1276 407 b 1138 900 1276 683 1226 811 l 1026 1011 b 663 1149 939 1099 814 1149 b 85 971 489 1149 229 1121 b -19 754 38 921 -19 844 b 32 625 -19 699 0 656 l 143 514 b 157 500 147 508 153 504 b 136 432 147 481 140 458 b 135 418 136 428 135 422 b 158 358 135 392 144 372 z m 849 558 b 831 493 843 536 838 514 l 821 501 b 849 558 831 521 840 539 z "},"Đ":{"ha":1193,"x_min":0,"x_max":0,"o":"m 157 500 b 136 432 147 481 140 458 b 135 418 136 428 135 422 b 158 358 135 390 144 372 l 194 322 b 119 290 165 322 139 313 b 58 125 81 254 58 175 b 126 -43 58 53 86 -3 l 238 -154 b 572 -260 325 -237 456 -260 b 1200 174 869 -260 1089 -94 b 1276 531 1249 286 1276 407 b 1138 900 1276 683 1226 811 l 1026 1011 b 663 1149 939 1099 814 1149 b 85 971 488 1149 231 1121 b -19 754 38 921 -19 844 b 32 625 -19 699 0 656 l 143 514 b 157 500 147 508 153 504 z "},"Ł":{"ha":935,"x_min":0,"x_max":0,"o":"m 432 392 b 283 417 383 410 332 417 b -56 71 86 417 -56 263 b 31 -140 -56 -14 -22 -86 l 142 -251 b 368 -343 200 -308 281 -343 b 660 -200 496 -343 574 -286 l 771 -311 b 801 -339 781 -321 790 -331 b 1075 -439 872 -400 958 -439 b 1442 -101 1283 -439 1442 -318 b 1382 42 1442 -57 1433 25 l 1314 110 b 1251 156 1300 143 1272 156 b 1190 110 1224 156 1197 128 b 1010 26 1168 56 1094 26 b 842 67 951 26 893 40 b 956 307 879 135 919 218 b 992 299 967 304 979 301 l 1013 296 b 1083 326 1043 296 1067 310 b 1131 449 1113 360 1131 404 b 1103 528 1131 471 1125 504 l 1046 585 b 1065 744 1058 642 1065 696 b 989 960 1065 835 1039 910 l 878 1071 b 668 1147 829 1119 758 1147 b 197 907 483 1147 306 1057 b 125 710 161 856 125 788 b 179 572 125 654 144 606 l 290 461 b 417 407 322 429 365 408 z "},"Ò":{"ha":929,"x_min":0,"x_max":0,"o":"m 57 694 b -56 353 -10 596 -56 478 b 65 43 -56 240 -14 122 l 176 -69 b 418 -167 238 -129 318 -167 b 981 331 714 -167 889 78 b 1038 631 1014 424 1038 528 b 933 926 1038 761 1000 860 l 885 975 b 979 1074 947 978 979 1010 b 874 1335 979 1144 919 1276 b 844 1363 865 1343 857 1353 l 763 1446 b 669 1499 744 1467 713 1499 b 567 1460 644 1499 597 1489 b 538 1385 550 1442 538 1418 b 656 1140 538 1333 585 1211 l 672 1124 b 513 1144 624 1138 571 1144 b 50 756 283 1144 50 1006 b 57 694 50 739 50 717 z m 651 769 b 572 494 643 675 614 579 b 550 561 572 519 568 542 l 522 589 l 521 596 b 651 769 521 668 585 743 z m 524 410 b 432 318 500 372 469 343 b 440 375 433 338 436 357 b 524 410 471 382 499 392 z "},"Ó":{"ha":929,"x_min":0,"x_max":0,"o":"m 867 1435 b 794 1463 850 1451 826 1463 b 486 1221 700 1463 486 1335 b 510 1144 486 1190 494 1165 b 50 756 282 1144 50 1003 b 57 694 50 739 50 717 b -56 353 -10 596 -56 478 b 65 43 -56 240 -14 122 l 176 -69 b 418 -167 238 -129 318 -167 b 981 331 714 -167 889 78 b 1038 631 1014 424 1038 528 b 933 926 1038 761 1000 860 l 828 1032 b 1015 1229 897 1065 1015 1140 b 978 1324 1015 1256 1006 1296 z m 651 769 b 572 494 643 675 614 579 b 550 561 572 519 568 542 l 522 589 l 521 596 b 651 769 521 668 585 743 z m 524 410 b 432 318 500 372 469 343 b 440 375 433 338 436 357 b 524 410 471 382 499 392 z "},"Ô":{"ha":929,"x_min":0,"x_max":0,"o":"m 849 1425 b 750 1461 826 1447 794 1461 b 497 1196 654 1461 497 1286 b 508 1144 497 1176 501 1160 b 50 756 281 1144 50 1003 b 57 694 50 739 50 717 b -56 353 -10 596 -56 478 b 65 43 -56 240 -14 122 l 176 -69 b 418 -167 238 -129 318 -167 b 981 331 714 -167 889 78 b 1038 631 1014 424 1038 528 b 933 926 1038 761 1000 860 l 899 961 b 967 1004 931 965 953 985 b 1006 1185 999 1056 1006 1126 b 960 1314 1006 1226 994 1279 z m 651 769 b 572 494 643 675 614 579 b 550 561 572 519 568 542 l 522 589 l 521 596 b 651 769 521 668 585 743 z m 524 410 b 432 318 500 372 469 343 b 440 375 433 338 436 357 b 524 410 471 382 499 392 z "},"Õ":{"ha":929,"x_min":0,"x_max":0,"o":"m 479 1379 b 415 1397 463 1389 442 1397 b 344 1368 385 1397 361 1385 b 304 1251 317 1336 304 1293 b 356 1136 304 1208 328 1168 l 367 1125 b 50 756 189 1078 50 949 b 57 694 50 739 50 717 b -56 353 -10 596 -56 478 b 65 43 -56 240 -14 122 l 176 -69 b 418 -167 238 -129 318 -167 b 981 331 714 -167 889 78 b 1038 631 1014 424 1038 528 b 933 926 1038 761 1000 860 l 822 1038 b 817 1043 821 1039 818 1042 b 851 1082 829 1057 842 1072 b 901 1067 874 1082 889 1075 l 925 1051 b 974 1033 943 1039 960 1033 b 1082 1144 1035 1033 1082 1083 b 1026 1238 1082 1190 1044 1224 l 915 1349 b 772 1401 876 1379 822 1401 b 569 1346 697 1401 636 1376 b 532 1335 550 1338 539 1335 l 514 1349 b 500 1363 508 1354 504 1358 b 479 1379 494 1368 488 1374 z m 790 1178 b 807 1167 797 1174 803 1169 z m 651 769 b 572 494 643 675 614 579 b 550 561 572 519 568 542 l 522 589 l 521 596 b 651 769 521 668 585 743 z m 524 410 b 432 318 500 372 469 343 b 440 375 433 338 436 357 b 524 410 471 382 499 392 z "},"Ö":{"ha":929,"x_min":0,"x_max":0,"o":"m 844 1324 b 757 1357 825 1344 796 1357 b 647 1311 717 1357 676 1340 b 549 1357 628 1339 596 1357 b 390 1201 465 1357 390 1285 b 407 1135 390 1178 396 1154 b 50 756 213 1097 50 965 b 57 694 50 739 50 717 b -56 353 -10 596 -56 478 b 65 43 -56 240 -14 122 l 176 -69 b 418 -167 238 -129 318 -167 b 981 331 714 -167 889 78 b 1038 631 1014 424 1038 528 b 933 926 1038 761 1000 860 l 892 968 b 953 1007 914 976 935 990 b 994 1107 978 1033 994 1067 b 956 1213 994 1143 985 1185 z m 651 769 b 572 494 643 675 614 579 b 550 561 572 519 568 542 l 522 589 l 521 596 b 651 769 521 668 585 743 z m 524 410 b 432 318 500 372 469 343 b 440 375 433 338 436 357 b 524 410 471 382 499 392 z "},"Ø":{"ha":929,"x_min":0,"x_max":0,"o":"m 57 694 b -56 353 -10 596 -56 478 b 63 46 -56 242 -15 126 b 94 -22 67 19 78 -4 l 206 -133 b 297 -167 228 -154 258 -167 b 349 -161 311 -167 331 -165 b 418 -167 371 -165 394 -167 b 981 331 714 -167 889 78 b 1038 631 1014 424 1038 528 b 933 926 1038 761 1000 860 l 822 1038 b 513 1144 750 1108 644 1144 b 50 756 283 1144 50 1006 b 57 694 50 739 50 717 z "},"Š":{"ha":1022,"x_min":0,"x_max":0,"o":"m 822 1422 b 732 1469 800 1451 764 1469 b 611 1243 626 1469 611 1322 b 635 1146 611 1213 617 1176 b 275 808 457 1118 275 1007 b 410 533 275 693 343 600 b 317 554 381 547 347 554 b -4 265 149 554 -4 443 b 94 38 -4 179 35 97 l 206 -74 b 540 -196 294 -164 425 -196 b 1050 178 788 -196 1050 -110 b 924 467 1050 290 992 389 b 968 461 939 463 954 461 b 1176 717 1104 461 1176 594 b 1082 947 1176 806 1142 888 l 996 1033 b 1119 1233 1044 1082 1119 1163 b 1088 1313 1119 1267 1107 1293 l 976 1424 b 889 1457 954 1446 921 1457 b 840 1439 865 1457 849 1446 b 822 1422 833 1435 828 1428 z "},"Ù":{"ha":1306,"x_min":0,"x_max":0,"o":"m 344 471 b 319 303 329 415 319 357 b 393 97 319 214 346 144 l 504 -14 b 713 -87 551 -62 622 -87 b 910 -14 788 -87 854 -56 l 1008 -112 b 1153 -167 1040 -146 1088 -167 b 1383 75 1282 -167 1383 -51 b 1381 107 1383 79 1383 93 b 1360 142 1379 111 1374 128 l 1274 228 b 1290 293 1279 247 1285 269 b 1336 440 1307 350 1325 408 b 1443 696 1365 528 1408 610 b 1460 772 1451 717 1460 742 b 1421 871 1460 815 1444 847 l 1310 982 b 1175 1032 1274 1018 1225 1032 b 1060 1229 1153 1094 1114 1186 l 976 1313 b 885 1365 960 1333 928 1365 b 782 1326 858 1365 813 1356 b 753 1251 765 1308 753 1285 b 871 1007 753 1200 800 1078 l 982 896 b 1017 867 993 885 1004 875 b 951 711 994 815 972 763 b 925 638 943 686 935 661 b 904 596 919 626 913 611 b 931 765 919 653 931 710 b 858 964 931 856 903 919 l 747 1075 b 486 1163 683 1139 585 1163 b 40 972 315 1163 158 1104 b -56 758 -4 921 -56 846 b -4 628 -56 703 -36 660 l 107 517 b 257 458 144 479 200 458 b 331 468 265 458 299 461 b 344 471 335 469 339 469 z "},"Ú":{"ha":1306,"x_min":0,"x_max":0,"o":"m 1135 1311 b 1063 1340 1118 1328 1094 1340 b 754 1097 968 1340 754 1213 b 757 1065 754 1086 756 1075 l 747 1075 b 486 1163 683 1139 585 1163 b 40 972 315 1163 158 1104 b -56 758 -4 921 -56 846 b -4 628 -56 703 -36 660 l 107 517 b 257 458 144 479 200 458 b 331 468 265 458 299 461 b 344 471 335 469 339 469 b 319 303 329 415 319 357 b 393 97 319 214 346 144 l 504 -14 b 713 -87 551 -62 622 -87 b 910 -14 788 -87 854 -56 l 1008 -112 b 1153 -167 1040 -146 1088 -167 b 1383 75 1282 -167 1383 -51 b 1381 107 1383 79 1383 93 b 1360 142 1379 111 1374 128 l 1274 228 b 1290 293 1279 247 1285 269 b 1336 440 1307 350 1325 408 b 1443 696 1365 528 1408 610 b 1460 772 1451 717 1460 742 b 1421 871 1460 815 1444 847 l 1310 982 b 1247 1021 1292 1000 1269 1013 b 1282 1107 1269 1047 1282 1076 b 1246 1200 1282 1132 1274 1174 z m 904 596 b 931 765 919 653 931 710 b 906 894 931 817 922 858 b 976 874 924 881 949 874 b 1022 881 989 874 1004 876 b 951 711 999 825 975 768 b 925 638 943 686 935 661 b 904 596 919 626 913 611 z "},"Û":{"ha":1306,"x_min":0,"x_max":0,"o":"m 1117 1301 b 1018 1339 1094 1324 1063 1339 b 765 1072 922 1339 765 1163 b 767 1057 765 1067 765 1061 l 747 1075 b 486 1163 683 1139 585 1163 b 40 972 315 1163 158 1104 b -56 758 -4 921 -56 846 b -4 628 -56 703 -36 660 l 107 517 b 257 458 144 479 200 458 b 331 468 265 458 299 461 b 344 471 335 469 339 469 b 319 303 329 415 319 357 b 393 97 319 214 346 144 l 504 -14 b 713 -87 551 -62 622 -87 b 910 -14 788 -87 854 -56 l 1008 -112 b 1153 -167 1040 -146 1088 -167 b 1383 75 1282 -167 1383 -51 b 1381 107 1383 79 1383 93 b 1360 142 1379 111 1374 128 l 1274 228 b 1290 293 1279 247 1285 269 b 1336 440 1307 350 1325 408 b 1443 696 1365 528 1408 610 b 1460 772 1451 717 1460 742 b 1421 871 1460 815 1444 847 l 1310 982 b 1271 1011 1299 994 1285 1003 b 1274 1063 1272 1032 1274 1051 b 1228 1190 1274 1104 1263 1156 z m 904 596 b 931 765 919 653 931 710 b 913 878 931 808 925 846 b 996 849 936 858 967 849 b 1010 850 1000 849 1006 849 b 951 711 989 804 971 757 b 925 638 943 686 935 661 b 904 596 919 626 913 611 z "},"Ü":{"ha":1306,"x_min":0,"x_max":0,"o":"m 1196 1269 b 1108 1303 1175 1290 1147 1303 b 997 1257 1067 1303 1028 1286 b 900 1303 978 1285 946 1303 b 742 1147 815 1303 742 1233 b 779 1051 742 1111 754 1076 l 890 940 b 981 904 913 918 943 904 b 1038 915 1000 904 1019 908 b 1029 894 1035 908 1032 901 b 951 711 1001 833 976 772 b 925 638 943 686 935 661 b 904 596 919 626 913 611 b 931 765 919 653 931 710 b 858 964 931 856 903 919 l 747 1075 b 486 1163 683 1139 585 1163 b 40 972 315 1163 158 1104 b -56 758 -4 921 -56 846 b -4 628 -56 703 -36 660 l 107 517 b 257 458 144 479 200 458 b 331 468 265 458 299 461 b 344 471 335 469 339 469 b 319 303 329 415 319 357 b 393 97 319 214 346 144 l 504 -14 b 713 -87 551 -62 622 -87 b 910 -14 788 -87 854 -56 l 1008 -112 b 1153 -167 1040 -146 1088 -167 b 1383 75 1282 -167 1383 -51 b 1381 107 1383 79 1383 93 b 1360 142 1379 111 1374 128 l 1274 228 b 1290 293 1279 247 1285 269 b 1336 440 1307 350 1325 408 b 1443 696 1365 528 1408 610 b 1460 772 1451 717 1460 742 b 1421 871 1460 815 1444 847 l 1319 972 b 1346 1053 1336 994 1346 1022 b 1307 1158 1346 1089 1335 1131 z "},"Ÿ":{"ha":1242,"x_min":0,"x_max":0,"o":"m 1165 1200 b 1078 1233 1146 1221 1118 1233 b 968 1189 1038 1233 997 1217 b 869 1233 949 1215 917 1233 b 711 1071 779 1233 711 1160 b 447 1144 635 1126 531 1144 b 68 981 297 1144 168 1081 b 40 951 58 971 50 961 b -56 739 -4 900 -56 826 b -4 607 -56 683 -36 639 l 107 496 b 254 439 144 458 199 439 b 329 449 264 439 297 442 b 360 456 339 450 350 453 b 414 268 360 388 368 322 b 164 -33 264 254 164 111 b 243 -228 164 -114 194 -179 l 354 -339 b 592 -435 417 -401 504 -435 b 1251 343 936 -435 1161 50 l 1264 363 b 1360 606 1315 439 1360 508 b 1303 754 1360 650 1343 713 l 1211 844 b 1274 885 1235 853 1257 867 b 1317 983 1300 910 1317 943 b 1276 1089 1317 1019 1306 1061 z m 925 786 b 914 840 924 806 919 824 b 951 835 925 838 938 835 b 938 811 947 828 943 819 b 925 786 933 803 929 794 z "},"Ý":{"ha":1242,"x_min":0,"x_max":0,"o":"m 1168 1228 b 1096 1257 1151 1244 1128 1257 b 788 1014 1000 1257 788 1129 b 788 1000 788 1010 788 1006 l 746 1043 b 447 1144 668 1121 543 1144 b 68 981 297 1144 168 1081 b 40 951 58 971 50 961 b -56 739 -4 900 -56 826 b -4 607 -56 683 -36 639 l 107 496 b 254 439 144 458 199 439 b 329 449 264 439 297 442 b 360 456 339 450 350 453 b 414 268 360 388 368 322 b 164 -33 264 254 164 111 b 243 -228 164 -114 194 -179 l 354 -339 b 592 -435 417 -401 504 -435 b 1251 343 936 -435 1161 50 l 1264 363 b 1360 606 1315 439 1360 508 b 1303 754 1360 650 1343 713 l 1193 863 b 1315 1024 1246 897 1315 956 b 1279 1117 1315 1050 1306 1090 z m 925 786 b 915 833 924 803 919 819 l 929 819 b 938 811 932 817 935 814 b 925 786 933 803 929 794 z "},"Ž":{"ha":1193,"x_min":0,"x_max":0,"o":"m 1060 1408 b 969 1456 1038 1439 1000 1456 b 860 1342 906 1456 871 1399 b 849 1231 849 1299 849 1250 b 865 1143 849 1203 853 1171 b 782 1146 838 1144 810 1146 b 361 1010 646 1146 476 1122 b 253 790 310 960 253 882 b 306 656 253 733 274 688 l 417 544 b 579 481 460 501 521 481 b 689 500 614 481 656 488 b 663 474 681 492 672 482 b 606 419 644 456 625 436 b 318 494 521 465 403 494 b -32 249 149 494 31 399 b -56 133 -46 214 -56 175 b 22 -56 -56 56 -25 -8 l 133 -167 b 375 -264 197 -231 289 -264 b 744 -79 529 -264 635 -174 b 964 -192 797 -133 869 -192 b 1168 -47 1057 -192 1132 -131 b 1185 28 1175 -28 1185 -1 b 1160 86 1185 44 1176 69 l 1049 197 b 1035 208 1044 201 1040 206 b 1369 694 1164 357 1276 519 b 1518 893 1449 728 1518 803 b 1485 979 1518 932 1506 960 l 1374 1090 b 1319 1122 1358 1106 1339 1115 b 1356 1219 1342 1158 1356 1193 b 1325 1299 1356 1254 1344 1281 l 1214 1410 b 1125 1444 1190 1433 1158 1444 b 1060 1408 1099 1444 1075 1428 z m 924 789 b 747 564 869 711 810 635 b 742 608 747 579 744 593 l 739 621 b 772 708 739 646 753 675 b 924 789 799 751 860 779 z "},"à":{"ha":842,"x_min":0,"x_max":0,"o":"m 929 765 b 922 769 926 767 925 768 b 790 1040 911 853 856 983 l 707 1124 b 615 1175 689 1144 658 1175 b 483 1063 546 1175 483 1138 b 600 818 483 1011 529 889 l 613 806 b 513 819 576 817 539 819 b 96 317 260 819 96 546 b 167 113 96 251 113 167 l 278 1 b 417 -51 310 -31 354 -51 b 610 15 493 -51 557 -25 l 676 -50 b 836 -107 713 -86 765 -107 b 1224 304 1063 -107 1178 111 l 1226 332 b 1199 403 1226 356 1218 383 l 1088 514 b 1060 532 1081 521 1071 528 b 1068 549 1063 538 1065 543 b 1074 582 1071 558 1074 569 b 1040 654 1074 615 1057 639 z "},"á":{"ha":842,"x_min":0,"x_max":0,"o":"m 929 765 b 776 817 892 796 824 817 b 736 813 763 817 749 815 b 750 868 744 831 750 849 b 714 961 750 894 742 935 l 603 1072 b 531 1101 586 1089 563 1101 b 222 860 436 1101 222 974 b 253 776 222 825 233 796 l 290 739 b 96 317 171 643 96 468 b 167 113 96 251 113 167 l 278 1 b 417 -51 310 -31 354 -51 b 610 15 493 -51 557 -25 l 676 -50 b 836 -107 713 -86 765 -107 b 1224 304 1063 -107 1178 111 l 1226 332 b 1199 403 1226 356 1218 383 l 1088 514 b 1060 532 1081 521 1071 528 b 1068 549 1063 538 1065 543 b 1074 582 1071 558 1074 569 b 1040 654 1074 615 1057 639 z "},"â":{"ha":842,"x_min":0,"x_max":0,"o":"m 929 765 b 796 815 894 793 839 810 b 799 872 799 839 799 861 b 753 1001 799 914 788 967 l 642 1113 b 543 1150 619 1135 588 1150 b 290 883 449 1150 290 974 b 321 804 290 850 303 824 l 349 778 b 96 317 192 693 96 488 b 167 113 96 251 113 167 l 278 1 b 417 -51 310 -31 354 -51 b 610 15 493 -51 557 -25 l 676 -50 b 836 -107 713 -86 765 -107 b 1224 304 1063 -107 1178 111 l 1226 332 b 1199 403 1226 356 1218 383 l 1088 514 b 1060 532 1081 521 1071 528 b 1068 549 1063 538 1065 543 b 1074 582 1071 558 1074 569 b 1040 654 1074 615 1057 639 z "},"ã":{"ha":842,"x_min":0,"x_max":0,"o":"m 575 1072 b 513 1090 558 1083 538 1090 b 400 944 433 1090 400 1014 b 419 875 400 917 411 893 b 453 831 429 858 440 843 l 467 817 b 96 317 240 786 96 528 b 167 113 96 251 113 167 l 278 1 b 417 -51 310 -31 354 -51 b 610 15 493 -51 557 -25 l 676 -50 b 836 -107 713 -86 765 -107 b 1224 304 1063 -107 1178 111 l 1226 332 b 1199 403 1226 356 1218 383 l 1088 514 b 1060 532 1081 521 1071 528 b 1068 549 1063 538 1065 543 b 1074 582 1071 558 1074 569 b 1040 654 1074 615 1057 639 l 933 760 b 949 776 939 767 943 772 b 997 761 969 776 985 769 l 1021 744 b 1069 728 1039 733 1056 728 b 1179 838 1129 728 1179 778 b 1122 932 1179 885 1140 917 l 1011 1043 b 868 1094 968 1076 922 1094 b 725 1067 818 1094 771 1085 b 667 1040 708 1060 688 1049 b 629 1029 646 1032 635 1029 l 619 1033 l 610 1043 b 596 1057 606 1047 600 1053 b 575 1072 590 1063 583 1068 z m 886 872 b 903 860 893 868 899 864 z "},"ä":{"ha":842,"x_min":0,"x_max":0,"o":"m 929 765 b 843 806 904 786 874 797 b 846 828 844 813 846 819 b 806 933 846 864 835 906 l 694 1044 b 607 1078 675 1064 647 1078 b 497 1032 567 1078 526 1060 b 399 1078 478 1058 446 1078 b 240 922 315 1078 240 1006 b 279 826 240 886 254 851 l 335 769 b 96 317 188 682 96 483 b 167 113 96 251 113 167 l 278 1 b 417 -51 310 -31 354 -51 b 610 15 493 -51 557 -25 l 676 -50 b 836 -107 713 -86 765 -107 b 1224 304 1063 -107 1178 111 l 1226 332 b 1199 403 1226 356 1218 383 l 1088 514 b 1060 532 1081 521 1071 528 b 1068 549 1063 538 1065 543 b 1074 582 1071 558 1074 569 b 1040 654 1074 615 1057 639 z "},"å":{"ha":842,"x_min":0,"x_max":0,"o":"m 929 765 b 782 815 893 796 828 815 b 797 893 792 843 797 869 b 761 992 797 938 783 969 l 650 1103 b 539 1143 622 1131 581 1143 b 315 901 418 1143 315 1018 b 354 800 315 857 331 824 l 367 788 b 96 317 199 708 96 494 b 167 113 96 251 113 167 l 278 1 b 417 -51 310 -31 354 -51 b 610 15 493 -51 557 -25 l 676 -50 b 836 -107 713 -86 765 -107 b 1224 304 1063 -107 1178 111 l 1226 332 b 1199 403 1226 356 1218 383 l 1088 514 b 1060 532 1081 521 1071 528 b 1068 549 1063 538 1065 543 b 1074 582 1071 558 1074 569 b 1040 654 1074 615 1057 639 z "},"ç":{"ha":565,"x_min":0,"x_max":0,"o":"m 518 746 b 324 819 465 799 381 819 b -54 499 143 806 1 664 b -92 300 -75 438 -92 369 b -14 92 -92 210 -62 140 l 65 14 b 42 -47 54 -8 46 -29 b -115 -218 -43 -54 -115 -132 b -72 -321 -115 -256 -100 -292 l 39 -432 b 246 -500 90 -483 176 -500 b 553 -224 407 -500 553 -394 b 503 -92 553 -168 533 -124 l 482 -72 b 721 169 586 -26 667 65 b 771 301 740 207 763 254 l 774 331 b 744 404 774 354 765 383 l 674 475 b 678 508 676 486 678 497 b 629 635 676 560 665 599 z m 443 378 b 349 306 419 346 389 317 b 401 418 358 343 378 385 b 443 378 413 403 426 389 z "},"đ":{"ha":839,"x_min":0,"x_max":0,"o":"m 833 1046 b 679 1097 797 1076 725 1097 b 561 1038 649 1097 590 1092 b 307 850 442 1029 322 982 b 306 836 306 846 306 842 b 307 818 306 831 306 824 b -86 317 68 803 -86 536 b -15 113 -86 251 -69 167 l 96 1 b 235 -51 128 -31 174 -51 b 447 32 321 -51 390 -18 l 496 -18 b 674 -79 536 -57 594 -79 b 1039 304 892 -79 994 117 l 1042 332 b 1014 403 1042 357 1033 383 l 903 514 b 860 538 892 525 878 533 b 901 657 872 576 888 617 b 919 653 908 656 914 654 l 942 650 b 1011 681 972 650 994 664 b 1038 715 1024 692 1032 706 b 1060 803 1051 743 1060 776 b 1031 882 1060 825 1054 858 l 919 993 b 860 1019 903 1010 883 1015 z "},"è":{"ha":568,"x_min":0,"x_max":0,"o":"m 369 1181 b 238 1068 301 1181 238 1140 b 356 822 238 1015 285 894 l 364 814 b 311 818 347 817 331 818 b -93 301 74 818 -93 508 b -14 96 -93 214 -62 144 l 97 -15 b 332 -104 156 -74 240 -104 b 724 169 513 -104 646 17 b 775 301 743 207 765 254 l 778 331 b 749 403 778 356 769 383 l 647 506 b 588 646 643 564 622 613 l 576 658 b 679 757 643 658 679 689 b 544 1046 679 831 608 997 l 461 1128 b 369 1181 444 1150 413 1181 z m 296 531 b 315 556 301 539 308 547 z "},"é":{"ha":568,"x_min":0,"x_max":0,"o":"m 539 1097 b 465 1125 521 1114 499 1125 b 190 965 382 1125 240 1038 b 157 883 174 946 157 917 b 189 800 157 850 168 819 l 194 793 b -93 301 26 718 -93 476 b -14 96 -93 214 -62 144 l 97 -15 b 332 -104 156 -74 240 -104 b 724 169 513 -104 646 17 b 775 301 743 207 765 254 l 778 331 b 749 403 778 356 769 383 l 647 506 b 588 646 643 564 622 613 l 525 708 b 686 892 589 743 686 811 b 650 986 686 918 676 958 z m 296 531 b 315 556 301 539 308 547 z "},"ê":{"ha":568,"x_min":0,"x_max":0,"o":"m 549 1113 b 450 1150 526 1135 494 1150 b 197 885 354 1150 197 975 b 228 806 197 850 210 824 b -93 301 39 747 -93 485 b -14 96 -93 214 -62 144 l 97 -15 b 332 -104 156 -74 240 -104 b 724 169 513 -104 646 17 b 775 301 743 207 765 254 l 778 331 b 749 403 778 356 769 383 l 647 506 b 588 646 643 564 622 613 l 586 647 b 667 693 624 649 650 671 b 706 874 699 742 706 818 b 660 1001 706 915 694 968 z m 296 531 b 315 556 301 539 308 547 z "},"ë":{"ha":568,"x_min":0,"x_max":0,"o":"m 628 1058 b 540 1092 608 1079 579 1092 b 431 1047 500 1092 460 1075 b 332 1092 411 1074 379 1092 b 174 938 249 1092 174 1022 b 211 840 174 900 188 865 l 243 810 b -93 301 44 760 -93 489 b -14 96 -93 214 -62 144 l 97 -15 b 332 -104 156 -74 240 -104 b 724 169 513 -104 646 17 b 775 301 743 207 765 254 l 778 331 b 749 403 778 356 769 383 l 647 506 b 588 646 643 564 622 613 l 508 725 b 524 738 514 729 518 733 b 622 693 546 711 579 693 b 778 842 703 693 778 760 b 739 947 778 878 768 919 z m 296 531 b 315 556 301 539 308 547 z "},"ì":{"ha":415,"x_min":0,"x_max":0,"o":"m 232 1179 b 100 1067 164 1179 100 1139 b 218 822 100 1015 147 893 l 232 807 b 171 817 208 814 186 817 b 50 754 138 817 81 810 b 8 660 33 725 21 690 b -103 240 -40 546 -103 376 b -43 63 -103 167 -83 104 l 69 -49 b 232 -106 106 -85 158 -106 b 617 304 457 -106 572 111 l 619 331 b 592 403 619 354 611 383 l 481 514 b 456 532 474 521 465 528 b 463 550 457 538 460 544 b 469 582 465 558 469 569 b 435 654 469 615 451 639 l 432 657 b 542 756 501 657 542 682 b 435 1015 542 824 482 961 b 407 1044 428 1025 419 1035 l 324 1126 b 232 1179 307 1149 275 1179 z "},"í":{"ha":415,"x_min":0,"x_max":0,"o":"m 429 1122 b 357 1150 413 1139 389 1150 b 49 908 263 1150 49 1022 b 79 825 49 874 60 844 l 101 803 b 50 754 82 794 64 779 b 8 660 33 725 21 690 b -103 240 -40 546 -103 376 b -43 63 -103 167 -83 104 l 69 -49 b 232 -106 106 -85 158 -106 b 617 304 457 -106 572 111 l 619 331 b 592 403 619 354 611 383 l 481 514 b 456 532 474 521 465 528 b 463 550 457 538 460 544 b 469 582 465 558 469 569 b 435 654 469 615 451 639 l 375 713 b 576 917 449 746 576 824 b 540 1011 576 943 568 983 z "},"î":{"ha":415,"x_min":0,"x_max":0,"o":"m 418 1106 b 319 1143 396 1128 364 1143 b 67 876 224 1143 67 967 b 96 800 67 844 78 818 b 50 754 78 790 63 776 b 8 660 33 725 21 690 b -103 240 -40 546 -103 376 b -43 63 -103 167 -83 104 l 69 -49 b 232 -106 106 -85 158 -106 b 617 304 457 -106 572 111 l 619 331 b 592 403 619 354 611 383 l 481 514 b 456 532 474 521 465 528 b 463 550 457 538 460 544 b 469 582 465 558 469 569 b 447 640 469 607 460 626 b 535 686 486 640 514 653 b 575 867 568 732 575 811 b 529 994 575 908 564 960 z "},"ï":{"ha":415,"x_min":0,"x_max":0,"o":"m 469 1064 b 382 1097 449 1083 421 1097 b 271 1051 340 1097 301 1079 b 174 1097 251 1078 219 1097 b 14 942 90 1097 14 1026 b 53 846 14 904 28 869 l 97 801 b 50 754 79 792 63 778 b 8 660 33 725 21 690 b -103 240 -40 546 -103 376 b -43 63 -103 167 -83 104 l 69 -49 b 232 -106 106 -85 158 -106 b 617 304 457 -106 572 111 l 619 331 b 592 403 619 354 611 383 l 481 514 b 456 532 474 521 465 528 b 463 550 457 538 460 544 b 469 582 465 558 469 569 b 435 654 469 615 451 639 l 354 735 b 364 743 357 738 361 740 b 463 699 386 715 421 699 b 619 847 544 699 619 764 b 581 953 619 883 608 925 z "},"ł":{"ha":417,"x_min":0,"x_max":0,"o":"m 411 1053 b 256 1104 374 1083 301 1104 b 133 1038 225 1104 161 1099 b 68 868 108 983 89 925 b 39 790 58 843 49 817 b -164 610 -65 772 -149 721 b -165 596 -164 604 -165 600 b -142 536 -165 568 -156 549 l -71 464 b -103 265 -87 403 -103 333 b -42 88 -103 189 -82 128 l 69 -24 b 244 -85 110 -64 168 -85 b 617 304 468 -85 572 110 l 619 331 b 592 403 619 354 613 383 l 549 447 b 589 561 574 476 589 524 b 561 640 589 583 583 617 l 496 706 b 501 721 497 710 500 715 b 550 836 517 760 535 797 b 557 868 553 844 557 856 b 522 942 557 901 539 926 z m 253 369 b 264 442 253 394 257 418 b 253 371 257 417 253 393 l 256 369 b 253 369 254 369 254 369 z "},"ñ":{"ha":831,"x_min":0,"x_max":0,"o":"m 365 1039 b 301 1058 347 1050 326 1058 b 207 993 261 1058 219 1032 b 190 911 193 965 190 933 b 233 807 190 875 210 835 b 174 815 211 813 189 815 b 51 753 143 815 82 808 b -104 236 -19 622 -104 397 b -43 53 -104 178 -92 101 l 68 -58 b 194 -106 96 -86 138 -106 b 261 -99 207 -106 235 -106 b 335 -12 301 -83 335 -60 b 324 32 335 7 331 17 l 325 39 l 324 63 b 326 118 324 79 325 99 b 363 65 336 97 349 81 l 474 -46 b 646 -106 514 -86 572 -106 b 1031 304 871 -106 986 111 l 1033 331 b 1006 403 1033 354 1025 383 l 894 514 b 835 539 881 528 861 538 l 800 540 b 758 608 790 568 776 590 l 682 685 b 699 700 688 690 693 694 b 738 743 714 714 726 732 b 788 728 760 743 774 736 l 810 711 b 860 694 828 700 844 694 b 968 804 919 694 968 744 b 913 899 968 851 931 883 l 801 1010 b 658 1061 760 1042 711 1061 b 515 1033 607 1061 560 1051 b 456 1007 497 1026 476 1015 b 418 996 436 999 425 996 l 408 1001 l 399 1010 b 385 1024 394 1015 390 1019 b 365 1039 379 1029 374 1035 z m 676 839 b 693 828 682 835 688 831 z m 213 143 b 213 146 213 143 213 144 z "},"ò":{"ha":639,"x_min":0,"x_max":0,"o":"m 399 1175 b 267 1063 329 1175 267 1138 b 383 818 267 1011 313 889 l 385 817 b 333 819 369 818 351 819 b -85 317 75 819 -85 553 b -4 101 -85 224 -54 151 l 107 -10 b 350 -99 167 -69 253 -99 b 733 388 600 -99 733 165 b 646 633 733 483 707 574 l 626 654 b 707 751 683 661 707 696 b 574 1040 707 832 639 983 l 490 1124 b 399 1175 472 1144 442 1175 z "},"ó":{"ha":639,"x_min":0,"x_max":0,"o":"m 585 1101 b 513 1131 568 1118 544 1131 b 204 888 418 1131 204 1001 b 233 806 204 856 214 826 b -85 317 31 747 -85 515 b -4 101 -85 224 -54 151 l 107 -10 b 350 -99 167 -69 253 -99 b 733 388 600 -99 733 165 b 646 633 733 483 707 574 l 568 711 b 733 897 633 746 733 815 b 696 990 733 922 724 964 z "},"ô":{"ha":639,"x_min":0,"x_max":0,"o":"m 592 1097 b 493 1135 569 1119 538 1135 b 240 868 397 1135 240 960 b 254 811 240 846 246 826 b -85 317 40 765 -85 519 b -4 101 -85 224 -54 151 l 107 -10 b 350 -99 167 -69 253 -99 b 733 388 600 -99 733 165 b 646 633 733 483 707 574 b 736 746 700 646 726 696 b 749 857 747 790 749 838 b 703 986 749 899 736 951 z "},"õ":{"ha":639,"x_min":0,"x_max":0,"o":"m 535 744 b 515 763 529 751 522 757 b 522 769 518 765 521 768 b 561 813 538 783 550 801 b 611 797 583 813 599 806 l 635 781 b 683 764 653 769 668 764 b 792 874 743 764 792 814 b 736 968 792 921 754 953 l 625 1079 b 482 1131 583 1111 535 1131 b 339 1103 431 1131 385 1121 b 279 1076 321 1096 300 1085 b 242 1065 260 1068 249 1065 l 224 1079 b 210 1093 218 1085 214 1089 b 189 1108 204 1099 197 1104 b 125 1128 172 1119 150 1128 b 14 981 46 1128 14 1049 b 65 867 14 940 38 894 l 158 775 b -85 317 3 688 -85 489 b -4 101 -85 224 -54 151 l 107 -10 b 350 -99 167 -69 253 -99 b 733 388 600 -99 733 165 b 646 633 733 483 707 574 z "},"ö":{"ha":639,"x_min":0,"x_max":0,"o":"m 618 1064 b 531 1097 599 1083 571 1097 b 421 1051 490 1097 450 1079 b 322 1097 401 1078 369 1097 b 164 942 239 1097 164 1025 b 203 846 164 904 178 869 l 240 807 b -85 317 33 756 -85 515 b -4 101 -85 224 -54 151 l 107 -10 b 350 -99 167 -69 253 -99 b 733 388 600 -99 733 165 b 646 633 733 483 707 574 l 578 703 b 613 699 588 700 600 699 b 769 847 693 699 769 765 b 729 953 769 882 758 924 z "},"ø":{"ha":639,"x_min":0,"x_max":0,"o":"m 686 990 b 533 1038 650 1021 579 1038 b 406 983 496 1038 442 1031 b 292 817 365 931 329 872 b -85 317 56 790 -85 536 b -62 189 -85 268 -76 226 b -85 74 -76 146 -85 106 b -50 -22 -85 35 -74 1 l 61 -133 b 153 -167 82 -154 113 -167 b 293 -94 207 -167 269 -149 b 350 -99 311 -97 331 -99 b 733 388 600 -99 733 165 b 686 581 733 457 718 525 b 817 756 728 640 772 699 b 835 807 825 767 835 783 b 797 879 835 842 815 865 z "},"š":{"ha":540,"x_min":0,"x_max":0,"o":"m 6 357 b 0 354 3 357 1 356 b -115 192 -64 324 -103 260 b -118 149 -117 178 -118 163 b -69 17 -118 89 -99 46 l 42 -94 b 236 -158 93 -144 174 -158 b 575 158 415 -158 575 -26 b 508 314 575 228 546 276 b 685 588 603 332 685 492 b 639 708 685 642 665 681 l 592 754 b 697 938 651 814 697 890 b 667 1017 697 972 686 999 l 556 1128 b 468 1163 533 1151 500 1163 b 401 1126 440 1163 418 1147 b 311 1174 379 1157 342 1174 b 190 949 206 1174 190 1029 b 206 867 190 924 194 894 b -97 542 51 833 -97 710 b -37 400 -97 481 -72 435 z m 289 160 b 303 146 296 154 300 149 z "},"ù":{"ha":831,"x_min":0,"x_max":0,"o":"m 729 733 b 707 751 722 739 714 744 b 574 1040 707 831 638 985 l 490 1124 b 397 1175 472 1144 440 1175 b 265 1063 329 1175 265 1135 b 383 818 265 1011 313 889 l 464 736 b 456 724 461 732 458 728 b 435 679 449 710 442 694 b 426 661 432 674 429 667 l 322 765 b 169 817 286 796 215 817 b 49 754 138 817 78 810 b 13 674 35 728 24 700 b -104 239 -36 556 -104 379 b -43 63 -104 165 -85 104 l 68 -49 b 229 -106 104 -85 157 -106 b 475 8 333 -106 415 -58 b 674 -81 518 -53 590 -81 b 1031 303 883 -81 989 124 l 1033 329 b 1006 403 1033 351 1026 382 l 894 514 b 872 529 888 519 881 525 b 875 550 874 535 875 543 b 840 622 875 583 857 607 z "},"ú":{"ha":831,"x_min":0,"x_max":0,"o":"m 729 733 b 688 758 717 744 701 753 b 744 868 718 788 744 825 b 708 961 744 894 736 935 l 597 1072 b 525 1101 581 1089 557 1101 b 217 860 431 1101 217 974 b 225 808 217 840 219 824 b 169 817 204 814 183 817 b 49 754 138 817 78 810 b 13 674 35 728 24 700 b -104 239 -36 556 -104 379 b -43 63 -104 165 -85 104 l 68 -49 b 229 -106 104 -85 157 -106 b 475 8 333 -106 415 -58 b 674 -81 518 -53 590 -81 b 1031 303 883 -81 989 124 l 1033 329 b 1006 403 1033 351 1026 382 l 894 514 b 872 529 888 519 881 525 b 875 550 874 535 875 543 b 840 622 875 583 857 607 z "},"û":{"ha":831,"x_min":0,"x_max":0,"o":"m 729 733 b 726 735 728 733 728 735 b 736 838 735 776 736 819 b 690 967 736 881 725 932 l 579 1078 b 481 1115 557 1100 525 1115 b 228 849 385 1115 228 939 b 235 807 228 833 231 819 b 169 817 210 813 186 817 b 49 754 138 817 78 810 b 13 674 35 728 24 700 b -104 239 -36 556 -104 379 b -43 63 -104 165 -85 104 l 68 -49 b 229 -106 104 -85 157 -106 b 475 8 333 -106 415 -58 b 674 -81 518 -53 590 -81 b 1031 303 883 -81 989 124 l 1033 329 b 1006 403 1033 351 1026 382 l 894 514 b 872 529 888 519 881 525 b 875 550 874 535 875 543 b 840 622 875 583 857 607 z "},"ü":{"ha":831,"x_min":0,"x_max":0,"o":"m 729 733 b 768 832 753 758 768 793 b 729 938 768 868 758 910 l 618 1049 b 531 1082 599 1069 569 1082 b 421 1038 490 1082 450 1065 b 322 1082 401 1064 369 1082 b 164 928 239 1082 164 1013 b 201 831 164 890 178 856 l 224 810 b 169 817 203 814 183 817 b 49 754 138 817 78 810 b 13 674 35 728 24 700 b -104 239 -36 556 -104 379 b -43 63 -104 165 -85 104 l 68 -49 b 229 -106 104 -85 157 -106 b 475 8 333 -106 415 -58 b 674 -81 518 -53 590 -81 b 1031 303 883 -81 989 124 l 1033 329 b 1006 403 1033 351 1026 382 l 894 514 b 872 529 888 519 881 525 b 875 550 874 535 875 543 b 840 622 875 583 857 607 z m 403 685 l 404 685 b 439 689 415 685 428 686 b 435 679 438 685 436 682 b 426 661 432 674 429 667 z "},"ý":{"ha":718,"x_min":0,"x_max":0,"o":"m 322 767 b 169 818 286 797 215 818 b 28 715 93 818 54 782 l 13 678 b -93 285 -33 572 -93 413 b -36 121 -93 221 -76 161 l 18 67 b -29 26 1 54 -15 42 b -118 -190 -83 -26 -118 -97 b -60 -333 -118 -250 -96 -299 l 51 -444 b 225 -514 97 -490 163 -514 b 672 3 501 -514 613 -221 b 854 513 719 178 779 349 b 863 547 860 522 863 535 b 828 619 863 581 844 606 l 717 731 b 694 746 710 736 701 742 b 794 892 740 779 794 832 b 758 986 794 918 785 958 l 647 1097 b 575 1125 631 1114 607 1125 b 265 883 481 1125 265 997 b 297 800 265 850 276 819 l 408 689 b 424 675 413 683 418 679 b 421 668 424 672 422 671 z "},"ÿ":{"ha":718,"x_min":0,"x_max":0,"o":"m 658 1054 b 571 1088 639 1074 610 1088 b 461 1042 529 1088 490 1069 b 363 1088 440 1068 410 1088 b 204 932 279 1088 204 1015 b 242 836 204 894 217 861 l 290 788 b 169 818 261 806 203 818 b 28 715 93 818 54 782 l 13 678 b -93 285 -33 572 -93 413 b -36 121 -93 221 -76 161 l 18 67 b -29 26 1 54 -15 42 b -118 -190 -83 -26 -118 -97 b -60 -333 -118 -250 -96 -299 l 51 -444 b 225 -514 97 -490 163 -514 b 672 3 501 -514 613 -221 b 854 513 719 178 779 349 b 863 547 860 522 863 535 b 828 619 863 581 844 606 l 735 713 b 808 838 779 740 808 783 b 769 943 808 874 797 915 z m 388 700 b 429 689 400 694 414 690 b 421 668 426 682 424 675 z "},"ž":{"ha":779,"x_min":0,"x_max":0,"o":"m 515 1131 b 425 1178 493 1161 456 1178 b 303 953 318 1178 303 1033 b 349 824 303 911 314 858 l 404 769 b 258 794 354 771 304 779 b 181 824 238 800 201 814 b 143 829 171 826 157 829 b 25 681 67 829 25 749 b 76 550 25 624 46 581 l 188 439 b 240 400 203 422 221 410 b 176 364 219 386 199 375 b 126 375 160 368 143 372 b 50 383 101 381 76 383 b -154 150 -61 383 -154 253 b -117 51 -154 106 -139 74 l -6 -60 b 119 -104 28 -93 76 -104 l 135 -104 b 296 -42 199 -100 256 -67 l 315 -26 b 365 -37 329 -26 346 -31 b 431 -68 388 -46 408 -57 b 606 -122 482 -97 546 -122 b 976 286 806 -122 936 118 b 983 333 979 297 983 315 b 956 404 983 350 978 383 l 844 515 b 838 522 843 518 840 521 b 863 589 850 538 863 560 b 814 664 863 628 839 653 l 713 765 b 811 942 768 824 811 896 b 781 1021 811 975 799 1001 l 669 1132 b 581 1167 646 1154 613 1167 b 533 1149 558 1167 542 1154 b 515 1131 526 1143 521 1136 z m 197 81 b 203 83 200 82 201 82 l 208 88 b 206 85 207 88 206 86 l 204 85 z "},"–":{"ha":694,"x_min":0,"x_max":0,"o":""},"—":{"ha":1389,"x_min":0,"x_max":0,"o":""},"¯":{"ha":361,"x_min":0,"x_max":0,"o":""},"¬":{"ha":794,"x_min":0,"x_max":0,"o":""},"™":{"ha":2489,"x_min":0,"x_max":0,"o":"m 1264 458 b 1258 443 1263 453 1260 449 b 1183 132 1225 358 1183 235 b 1233 -15 1183 69 1200 18 l 1344 -126 b 1482 -175 1375 -157 1421 -175 b 1528 -169 1489 -175 1508 -175 b 1593 -96 1565 -162 1593 -135 l 1590 -74 b 1633 125 1594 -15 1611 56 b 1653 101 1639 117 1644 108 l 1764 -10 b 1864 -46 1789 -37 1828 -46 b 2011 31 1921 -46 1979 -17 b 2064 -58 2022 -3 2039 -33 l 2175 -169 b 2325 -225 2208 -204 2257 -225 b 2557 17 2454 -225 2557 -110 b 2554 49 2557 21 2557 35 b 2533 83 2553 51 2547 69 l 2447 169 b 2540 475 2468 274 2501 376 b 2600 619 2560 524 2581 571 b 2618 700 2608 640 2618 668 b 2576 807 2618 747 2601 782 l 2465 918 b 2296 978 2418 965 2342 978 b 2056 888 2204 978 2124 939 b 2049 894 2054 890 2051 892 l 1938 1006 b 1568 1147 1843 1100 1700 1147 b 1311 1124 1493 1147 1401 1142 b 1254 1110 1289 1124 1274 1122 b 1042 1014 1178 1090 1104 1060 b 994 1021 1026 1015 1010 1018 b 879 1043 956 1028 917 1036 b 475 1090 746 1068 611 1090 b 54 953 338 1090 171 1065 b -56 733 3 903 -56 826 b -1 599 -56 676 -35 631 l 110 488 b 272 424 151 444 214 424 b 440 514 326 424 440 440 b 435 551 440 528 438 539 l 432 564 b 465 651 432 589 446 618 b 561 729 485 685 519 710 b 360 139 482 571 360 314 b 410 -8 360 76 376 26 l 521 -119 b 658 -167 551 -150 597 -167 b 704 -162 665 -167 685 -167 b 769 -87 742 -147 769 -133 l 767 -65 b 993 567 782 122 903 394 l 1047 511 b 1203 453 1088 472 1146 453 b 1264 458 1211 453 1238 454 z "},"¤":{"ha":794,"x_min":0,"x_max":0,"o":""},"ƒ":{"ha":453,"x_min":0,"x_max":0,"o":"m 372 921 b 218 972 335 951 265 972 b 97 908 188 972 126 965 b 56 808 82 876 69 842 b -19 614 29 743 4 679 b -49 603 -29 611 -39 607 b -101 517 -75 589 -101 561 b -71 454 -101 486 -89 467 b -119 165 -96 364 -119 258 b -112 82 -119 138 -117 111 b -106 50 -110 71 -108 61 b -93 13 -103 39 -99 26 b -54 -42 -83 -8 -69 -26 l 57 -153 b 211 -218 99 -194 156 -218 b 549 200 422 -218 549 10 b 513 353 549 246 542 304 b 544 424 531 368 544 390 b 503 493 544 457 525 481 l 449 547 b 511 706 468 600 490 653 b 518 738 515 714 518 725 b 483 810 518 771 500 794 z "},"−":{"ha":794,"x_min":0,"x_max":0,"o":""},"¦":{"ha":765,"x_min":0,"x_max":0,"o":""},"·":{"ha":372,"x_min":0,"x_max":0,"o":""},"¡":{"ha":374,"x_min":0,"x_max":0,"o":""},"°":{"ha":594,"x_min":0,"x_max":0,"o":""},"ª":{"ha":496,"x_min":0,"x_max":0,"o":""},"º":{"ha":522,"x_min":0,"x_max":0,"o":""},"¹":{"ha":486,"x_min":0,"x_max":0,"o":""},"²":{"ha":486,"x_min":0,"x_max":0,"o":""},"³":{"ha":486,"x_min":0,"x_max":0,"o":""},"⁄":{"ha":739,"x_min":0,"x_max":0,"o":"m 746 990 b 592 1038 706 1021 642 1038 b 464 983 554 1038 500 1031 b 349 814 424 929 386 871 b -26 74 242 654 -26 256 b 8 -22 -26 35 -14 1 l 119 -133 b 211 -167 140 -154 172 -167 b 361 -62 278 -167 353 -137 b 876 756 506 228 679 500 b 894 807 883 767 894 783 b 857 879 894 842 874 865 z "},"‰":{"ha":1635,"x_min":0,"x_max":0,"o":""},"μ":{"ha":865,"x_min":0,"x_max":0,"o":""},"¶":{"ha":910,"x_min":0,"x_max":0,"o":""},"†":{"ha":361,"x_min":0,"x_max":0,"o":"m 393 1047 b 292 1064 354 1058 311 1064 b 168 1010 243 1064 196 1053 b 99 871 143 968 119 915 b -139 129 14 693 -139 344 b -135 74 -139 113 -137 93 b -140 44 -136 64 -139 54 b -118 -29 -140 15 -140 -7 l -7 -140 b 61 -167 13 -160 40 -167 l 83 -164 b 110 -167 92 -165 100 -167 b 231 -122 163 -167 193 -160 b 474 -154 314 -122 393 -135 l 494 -157 b 565 -126 525 -157 549 -143 b 613 -4 594 -93 613 -49 b 585 75 613 19 608 51 l 474 186 b 422 211 461 199 444 207 b 339 224 394 215 367 219 b 600 800 410 422 489 619 b 611 839 604 808 611 822 b 564 913 611 879 581 903 l 453 1024 b 393 1047 435 1035 413 1043 z "},"‡":{"ha":361,"x_min":0,"x_max":0,"o":"m 393 1047 b 292 1064 354 1058 311 1064 b 168 1010 243 1064 196 1053 b 99 871 143 968 119 915 b 24 706 76 825 50 768 b -136 519 -69 679 -136 624 b -114 456 -136 496 -128 472 b -204 297 -174 419 -204 368 b -179 229 -204 271 -196 246 l -135 186 b -139 129 -137 167 -139 147 b -90 -19 -139 78 -131 17 l 21 -131 b 110 -167 42 -153 71 -167 b 247 -71 171 -167 247 -144 l 246 -60 b 307 135 265 6 286 71 b 468 107 361 129 414 119 l 490 104 b 560 135 521 104 543 118 b 586 169 572 146 581 160 b 608 257 600 197 608 231 b 585 331 608 279 603 308 b 676 479 643 344 676 425 b 649 557 676 503 671 535 l 538 668 b 529 675 535 671 532 674 b 600 800 551 718 575 760 b 611 839 604 808 611 822 b 564 913 611 879 581 903 l 453 1024 b 393 1047 435 1035 413 1043 z "},"‹":{"ha":431,"x_min":0,"x_max":0,"o":""},"›":{"ha":431,"x_min":0,"x_max":0,"o":""},"«":{"ha":707,"x_min":0,"x_max":0,"o":""},"»":{"ha":707,"x_min":0,"x_max":0,"o":""},"˙":{"ha":361,"x_min":0,"x_max":0,"o":""},"˝":{"ha":797,"x_min":0,"x_max":0,"o":"m 381 1072 b 308 1101 364 1089 340 1101 b 0 860 214 1101 0 974 b 31 776 0 825 11 796 l 142 665 b 224 635 161 646 189 635 b 458 746 269 635 385 681 l 540 665 b 622 635 560 646 588 635 b 928 868 714 635 928 757 b 890 961 928 894 918 935 l 779 1072 b 707 1101 763 1089 739 1101 b 471 983 629 1101 525 1038 z "},"˛":{"ha":361,"x_min":0,"x_max":0,"o":""},"ı":{"ha":415,"x_min":0,"x_max":0,"o":"m 392 1018 b 285 1063 364 1046 326 1063 b 132 910 200 1063 132 994 b 164 817 132 875 144 842 b 50 754 131 815 79 807 b 8 660 33 725 21 690 b -103 240 -40 546 -103 376 b -43 63 -103 167 -83 104 l 69 -49 b 232 -106 106 -85 158 -106 b 617 304 457 -106 572 111 l 619 331 b 592 403 619 354 611 383 l 481 514 b 456 532 474 521 465 528 b 463 550 457 538 460 544 b 469 582 465 558 469 569 b 438 651 469 614 453 636 b 547 799 503 669 547 732 b 503 907 547 840 531 879 z "},"ﬁ":{"ha":868,"x_min":0,"x_max":0,"o":"m 372 921 b 218 972 335 951 265 972 b 97 908 188 972 126 965 b 56 808 82 876 69 842 b -19 614 29 743 4 679 b -49 603 -29 611 -39 607 b -101 517 -75 589 -101 561 b -71 454 -101 486 -89 467 b -119 165 -96 364 -119 258 b -112 82 -119 138 -117 111 b -106 50 -110 71 -108 61 b -93 13 -103 39 -99 26 b -54 -42 -83 -8 -69 -26 l 57 -153 b 211 -218 99 -194 156 -218 b 494 -21 343 -218 438 -133 l 522 -49 b 685 -106 558 -85 611 -106 b 1069 304 910 -106 1025 111 l 1072 331 b 1044 403 1072 354 1064 383 l 933 514 b 908 532 926 521 918 528 b 915 550 910 538 913 544 b 922 582 918 558 922 569 b 890 651 922 614 906 636 b 1000 799 956 669 1000 732 b 956 907 1000 840 983 879 l 844 1018 b 738 1063 817 1046 779 1063 b 585 910 653 1063 585 994 b 617 817 585 875 597 842 b 511 768 586 815 542 808 b 483 810 506 786 493 800 z "},"ﬂ":{"ha":869,"x_min":0,"x_max":0,"o":"m 372 921 b 218 972 335 951 265 972 b 97 908 188 972 126 965 b 56 808 82 876 69 842 b -19 614 29 743 4 679 b -49 603 -29 611 -39 607 b -101 517 -75 589 -101 561 b -71 454 -101 486 -89 467 b -119 165 -96 364 -119 258 b -112 82 -119 138 -117 111 b -106 50 -110 71 -108 61 b -93 13 -103 39 -99 26 b -54 -42 -83 -8 -69 -26 l 57 -153 b 211 -218 99 -194 156 -218 b 503 -3 350 -218 449 -124 l 522 -24 b 697 -85 563 -64 621 -85 b 1069 304 921 -85 1025 110 l 1072 331 b 1044 403 1072 354 1065 383 l 933 514 b 888 538 922 526 907 535 b 954 721 908 599 931 660 b 1003 836 969 760 988 797 b 1010 868 1006 844 1010 856 b 975 942 1010 901 992 926 l 864 1053 b 708 1104 826 1083 754 1104 b 586 1038 678 1104 614 1099 b 521 868 561 983 542 925 b 494 797 511 844 503 821 b 483 810 490 801 486 806 z "},"ð":{"ha":840,"x_min":0,"x_max":0,"o":""}}}
